<svg width="138" height="32" viewBox="0 0 138 32" fill="none" xmlns="http://www.w3.org/2000/svg">
<path d="M7.63125 24.32C5.81792 24.32 4.29259 23.9787 3.05525 23.296C1.81792 22.592 0.847253 21.6 0.143253 20.32L3.95125 16.384C4.31392 16.9387 4.71925 17.3973 5.16725 17.76C5.61525 18.1013 6.09525 18.272 6.60725 18.272C7.11925 18.272 7.52459 18.1013 7.82325 17.76C8.14325 17.3973 8.30325 16.9173 8.30325 16.32V7.488H4.17525V1.6H18.4153V7.488H14.9593V17.184C14.9593 18.6987 14.6286 19.9893 13.9673 21.056C13.3059 22.1227 12.4206 22.9333 11.3113 23.488C10.2019 24.0427 8.97525 24.32 7.63125 24.32ZM28.298 24.352C26.3567 24.352 24.8633 23.7547 23.818 22.56C22.7727 21.3653 22.25 19.6587 22.25 17.44V6.88H28.746V16.896C28.746 18.3467 29.418 19.072 30.762 19.072C31.402 19.072 31.9247 18.88 32.33 18.496C32.7353 18.112 32.938 17.632 32.938 17.056V6.88H39.434V24H33.482L33.258 22.112C32.682 22.7947 31.9567 23.3387 31.082 23.744C30.2287 24.1493 29.3007 24.352 28.298 24.352ZM44.9363 24V6.88H50.9523L51.1123 8.608C51.7096 7.968 52.4349 7.46667 53.2883 7.104C54.1629 6.72 55.0909 6.528 56.0723 6.528C57.9923 6.528 59.4643 7.12533 60.4883 8.32C61.5336 9.51467 62.0563 11.2213 62.0563 13.44V24H55.5603V13.984C55.5603 12.5333 54.9096 11.808 53.6083 11.808C52.9683 11.808 52.4456 12 52.0403 12.384C51.6349 12.768 51.4323 13.248 51.4323 13.824V24H44.9363ZM75.1455 31.36C73.6095 31.36 72.0842 31.1467 70.5695 30.72C69.0762 30.2933 67.8495 29.7387 66.8895 29.056L69.0975 24.704C69.8015 25.152 70.5482 25.4933 71.3375 25.728C72.1482 25.984 73.0335 26.112 73.9935 26.112C75.4868 26.112 76.5642 25.8027 77.2255 25.184C77.8868 24.5867 78.2175 23.6053 78.2175 22.24V22.016C77.6415 22.4853 76.9588 22.8587 76.1695 23.136C75.3802 23.392 74.5482 23.52 73.6735 23.52C72.1588 23.52 70.8148 23.1787 69.6415 22.496C68.4895 21.8133 67.5722 20.864 66.8895 19.648C66.2282 18.4107 65.8975 16.96 65.8975 15.296C65.8975 13.568 66.2282 12.0533 66.8895 10.752C67.5508 9.42933 68.4468 8.39467 69.5775 7.648C70.7295 6.90133 72.0415 6.528 73.5135 6.528C74.5588 6.528 75.5188 6.69867 76.3935 7.04C77.2895 7.36 78.0255 7.808 78.6015 8.384L78.7295 6.88H84.7455V22.336C84.7455 25.216 83.8922 27.4347 82.1855 28.992C80.4788 30.5707 78.1322 31.36 75.1455 31.36ZM75.3055 18.88C76.2868 18.88 77.0442 18.5813 77.5775 17.984C78.1108 17.3653 78.3775 16.4907 78.3775 15.36C78.3775 14.2293 78.1108 13.3547 77.5775 12.736C77.0442 12.1173 76.2868 11.808 75.3055 11.808C74.3242 11.808 73.5668 12.1173 73.0335 12.736C72.5215 13.3547 72.2655 14.2293 72.2655 15.36C72.2655 16.4907 72.5215 17.3653 73.0335 17.984C73.5668 18.5813 74.3242 18.88 75.3055 18.88ZM90.0125 24V0.32H96.5085V24H90.0125ZM109.917 24.32C107.933 24.32 106.226 23.936 104.797 23.168C103.367 22.4 102.269 21.3547 101.501 20.032C100.733 18.688 100.349 17.152 100.349 15.424C100.349 13.696 100.722 12.1707 101.469 10.848C102.215 9.504 103.239 8.448 104.541 7.68C105.842 6.912 107.335 6.528 109.021 6.528C110.706 6.528 112.178 6.912 113.437 7.68C114.717 8.448 115.698 9.504 116.381 10.848C117.085 12.1707 117.415 13.696 117.373 15.424L117.341 16.768H106.685C106.983 17.3867 107.463 17.8773 108.125 18.24C108.807 18.5813 109.65 18.752 110.653 18.752C111.293 18.752 111.837 18.6773 112.285 18.528C112.754 18.3573 113.245 18.0907 113.757 17.728L116.733 21.92C115.538 22.8373 114.386 23.4667 113.277 23.808C112.189 24.1493 111.069 24.32 109.917 24.32ZM109.149 11.744C107.677 11.744 106.77 12.4053 106.429 13.728H111.581C111.559 13.1093 111.325 12.6293 110.877 12.288C110.45 11.9253 109.874 11.744 109.149 11.744ZM129.627 24.32C127.643 24.32 125.936 23.936 124.507 23.168C123.077 22.4 121.979 21.3547 121.211 20.032C120.443 18.688 120.059 17.152 120.059 15.424C120.059 13.696 120.432 12.1707 121.179 10.848C121.925 9.504 122.949 8.448 124.251 7.68C125.552 6.912 127.045 6.528 128.731 6.528C130.416 6.528 131.888 6.912 133.147 7.68C134.427 8.448 135.408 9.504 136.091 10.848C136.795 12.1707 137.125 13.696 137.083 15.424L137.051 16.768H126.395C126.693 17.3867 127.173 17.8773 127.835 18.24C128.517 18.5813 129.36 18.752 130.363 18.752C131.003 18.752 131.547 18.6773 131.995 18.528C132.464 18.3573 132.955 18.0907 133.467 17.728L136.443 21.92C135.248 22.8373 134.096 23.4667 132.987 23.808C131.899 24.1493 130.779 24.32 129.627 24.32ZM128.859 11.744C127.387 11.744 126.48 12.4053 126.139 13.728H131.291C131.269 13.1093 131.035 12.6293 130.587 12.288C130.16 11.9253 129.584 11.744 128.859 11.744Z" fill="url(#paint0_linear)"/>
<defs>
<linearGradient id="paint0_linear" x1="3.5175" y1="12" x2="138" y2="12" gradientUnits="userSpaceOnUse">
<stop/>
<stop offset="1" stop-color="#14A623"/>
</linearGradient>
</defs>
</svg>
