<svg width="212" height="32" viewBox="0 0 212 32" fill="none" xmlns="http://www.w3.org/2000/svg">
<path d="M8.48 24.32C6.66667 24.32 5.14133 23.9787 3.904 23.296C2.66667 22.592 1.696 21.6 0.992 20.32L4.8 16.384C5.16267 16.9387 5.568 17.3973 6.016 17.76C6.464 18.1013 6.944 18.272 7.456 18.272C7.968 18.272 8.37333 18.1013 8.672 17.76C8.992 17.3973 9.152 16.9173 9.152 16.32V7.488H5.024V1.6H19.264V7.488H15.808V17.184C15.808 18.6987 15.4773 19.9893 14.816 21.056C14.1547 22.1227 13.2693 22.9333 12.16 23.488C11.0507 24.0427 9.824 24.32 8.48 24.32ZM29.1467 24.352C27.2054 24.352 25.7121 23.7547 24.6667 22.56C23.6214 21.3653 23.0987 19.6587 23.0987 17.44V6.88H29.5947V16.896C29.5947 18.3467 30.2667 19.072 31.6107 19.072C32.2507 19.072 32.7734 18.88 33.1788 18.496C33.5841 18.112 33.7867 17.632 33.7867 17.056V6.88H40.2827V24H34.3307L34.1067 22.112C33.5307 22.7947 32.8054 23.3387 31.9307 23.744C31.0774 24.1493 30.1494 24.352 29.1467 24.352ZM45.785 24V6.88H51.801L51.961 8.608C52.5583 7.968 53.2837 7.46667 54.137 7.104C55.0117 6.72 55.9397 6.528 56.921 6.528C58.841 6.528 60.313 7.12533 61.337 8.32C62.3823 9.51467 62.905 11.2213 62.905 13.44V24H56.409V13.984C56.409 12.5333 55.7583 11.808 54.457 11.808C53.817 11.808 53.2943 12 52.889 12.384C52.4837 12.768 52.281 13.248 52.281 13.824V24H45.785ZM75.9942 31.36C74.4582 31.36 72.9329 31.1467 71.4182 30.72C69.9249 30.2933 68.6982 29.7387 67.7382 29.056L69.9462 24.704C70.6502 25.152 71.3969 25.4933 72.1862 25.728C72.9969 25.984 73.8822 26.112 74.8422 26.112C76.3356 26.112 77.4129 25.8027 78.0742 25.184C78.7356 24.5867 79.0662 23.6053 79.0662 22.24V22.016C78.4902 22.4853 77.8076 22.8587 77.0182 23.136C76.2289 23.392 75.3969 23.52 74.5222 23.52C73.0076 23.52 71.6636 23.1787 70.4902 22.496C69.3382 21.8133 68.4209 20.864 67.7382 19.648C67.0769 18.4107 66.7462 16.96 66.7462 15.296C66.7462 13.568 67.0769 12.0533 67.7382 10.752C68.3996 9.42933 69.2956 8.39467 70.4262 7.648C71.5782 6.90133 72.8902 6.528 74.3622 6.528C75.4076 6.528 76.3676 6.69867 77.2422 7.04C78.1382 7.36 78.8742 7.808 79.4502 8.384L79.5782 6.88H85.5942V22.336C85.5942 25.216 84.7409 27.4347 83.0342 28.992C81.3276 30.5707 78.9809 31.36 75.9942 31.36ZM76.1542 18.88C77.1356 18.88 77.8929 18.5813 78.4262 17.984C78.9596 17.3653 79.2262 16.4907 79.2262 15.36C79.2262 14.2293 78.9596 13.3547 78.4262 12.736C77.8929 12.1173 77.1356 11.808 76.1542 11.808C75.1729 11.808 74.4156 12.1173 73.8822 12.736C73.3702 13.3547 73.1142 14.2293 73.1142 15.36C73.1142 16.4907 73.3702 17.3653 73.8822 17.984C74.4156 18.5813 75.1729 18.88 76.1542 18.88ZM90.8612 24V0.32H97.3572V24H90.8612ZM110.766 24.32C108.782 24.32 107.075 23.936 105.646 23.168C104.216 22.4 103.118 21.3547 102.35 20.032C101.582 18.688 101.198 17.152 101.198 15.424C101.198 13.696 101.571 12.1707 102.318 10.848C103.064 9.504 104.088 8.448 105.39 7.68C106.691 6.912 108.184 6.528 109.87 6.528C111.555 6.528 113.027 6.912 114.286 7.68C115.566 8.448 116.547 9.504 117.23 10.848C117.934 12.1707 118.264 13.696 118.222 15.424L118.19 16.768H107.534C107.832 17.3867 108.312 17.8773 108.974 18.24C109.656 18.5813 110.499 18.752 111.502 18.752C112.142 18.752 112.686 18.6773 113.134 18.528C113.603 18.3573 114.094 18.0907 114.606 17.728L117.582 21.92C116.387 22.8373 115.235 23.4667 114.126 23.808C113.038 24.1493 111.918 24.32 110.766 24.32ZM109.998 11.744C108.526 11.744 107.619 12.4053 107.278 13.728H112.43C112.408 13.1093 112.174 12.6293 111.726 12.288C111.299 11.9253 110.723 11.744 109.998 11.744ZM126.899 24L119.795 6.88H127.027L129.715 16.544L132.371 6.88H139.603L132.147 24H126.899ZM150.779 24.32C148.795 24.32 147.089 23.936 145.659 23.168C144.23 22.4 143.131 21.3547 142.363 20.032C141.595 18.688 141.211 17.152 141.211 15.424C141.211 13.696 141.585 12.1707 142.331 10.848C143.078 9.504 144.102 8.448 145.403 7.68C146.705 6.912 148.198 6.528 149.883 6.528C151.569 6.528 153.041 6.912 154.299 7.68C155.579 8.448 156.561 9.504 157.243 10.848C157.947 12.1707 158.278 13.696 158.235 15.424L158.203 16.768H147.547C147.846 17.3867 148.326 17.8773 148.987 18.24C149.67 18.5813 150.513 18.752 151.515 18.752C152.155 18.752 152.699 18.6773 153.147 18.528C153.617 18.3573 154.107 18.0907 154.619 17.728L157.595 21.92C156.401 22.8373 155.249 23.4667 154.139 23.808C153.051 24.1493 151.931 24.32 150.779 24.32ZM150.011 11.744C148.539 11.744 147.633 12.4053 147.291 13.728H152.443C152.422 13.1093 152.187 12.6293 151.739 12.288C151.313 11.9253 150.737 11.744 150.011 11.744ZM162.201 24V6.88H168.217L168.377 9.184C168.975 8.37333 169.7 7.73333 170.553 7.264C171.407 6.77333 172.335 6.528 173.337 6.528C173.721 6.528 174.084 6.56 174.425 6.624C174.767 6.66667 175.097 6.73067 175.417 6.816L173.625 14.016C173.412 13.8667 173.071 13.728 172.601 13.6C172.153 13.472 171.663 13.408 171.129 13.408C170.34 13.408 169.732 13.6427 169.305 14.112C168.9 14.5813 168.697 15.232 168.697 16.064V24H162.201ZM184.799 24.32C182.942 24.32 181.321 24.0427 179.934 23.488C178.569 22.912 177.502 22.1973 176.734 21.344L180.51 18.112C181.193 18.7093 181.972 19.1573 182.846 19.456C183.742 19.7333 184.489 19.872 185.087 19.872C185.919 19.872 186.335 19.616 186.335 19.104C186.335 18.784 186.164 18.5493 185.823 18.4C185.46 18.2507 184.574 17.9947 183.166 17.632C182.334 17.4187 181.566 17.152 180.862 16.832C180.18 16.512 179.593 16.1387 179.102 15.712C178.59 15.2427 178.185 14.7093 177.886 14.112C177.609 13.5147 177.47 12.8427 177.47 12.096C177.47 10.944 177.822 9.952 178.526 9.12C179.23 8.288 180.137 7.648 181.246 7.2C182.377 6.752 183.561 6.528 184.799 6.528C186.356 6.528 187.774 6.752 189.054 7.2C190.334 7.648 191.476 8.256 192.479 9.024L189.182 12.704C188.649 12.256 187.966 11.84 187.134 11.456C186.324 11.072 185.524 10.88 184.734 10.88C184.009 10.88 183.646 11.1467 183.646 11.68C183.646 12.0427 183.87 12.3307 184.318 12.544C184.51 12.6293 184.83 12.7467 185.278 12.896C185.748 13.0453 186.431 13.248 187.326 13.504C188.286 13.7813 189.129 14.1013 189.854 14.464C190.601 14.8267 191.198 15.2533 191.646 15.744C191.945 16.0853 192.18 16.4693 192.351 16.896C192.521 17.3227 192.606 17.7813 192.606 18.272C192.606 19.4453 192.265 20.4907 191.583 21.408C190.921 22.304 190.004 23.0187 188.83 23.552C187.657 24.064 186.313 24.32 184.799 24.32ZM204.409 24.32C202.425 24.32 200.719 23.936 199.289 23.168C197.86 22.4 196.761 21.3547 195.993 20.032C195.225 18.688 194.841 17.152 194.841 15.424C194.841 13.696 195.215 12.1707 195.961 10.848C196.708 9.504 197.732 8.448 199.033 7.68C200.335 6.912 201.828 6.528 203.513 6.528C205.199 6.528 206.671 6.912 207.929 7.68C209.209 8.448 210.191 9.504 210.873 10.848C211.577 12.1707 211.908 13.696 211.865 15.424L211.833 16.768H201.177C201.476 17.3867 201.956 17.8773 202.617 18.24C203.3 18.5813 204.143 18.752 205.145 18.752C205.785 18.752 206.329 18.6773 206.777 18.528C207.247 18.3573 207.737 18.0907 208.249 17.728L211.225 21.92C210.031 22.8373 208.879 23.4667 207.769 23.808C206.681 24.1493 205.561 24.32 204.409 24.32ZM203.641 11.744C202.169 11.744 201.263 12.4053 200.921 13.728H206.073C206.052 13.1093 205.817 12.6293 205.369 12.288C204.943 11.9253 204.367 11.744 203.641 11.744Z" fill="url(#paint0_linear)"/>
<defs>
<linearGradient id="paint0_linear" x1="6.9225" y1="12" x2="213" y2="12" gradientUnits="userSpaceOnUse">
<stop/>
<stop offset="1" stop-color="#14A623"/>
</linearGradient>
</defs>
</svg>
