<?xml version="1.0" encoding="UTF-8" standalone="no"?>
<svg
   xmlns:dc="http://purl.org/dc/elements/1.1/"
   xmlns:cc="http://creativecommons.org/ns#"
   xmlns:rdf="http://www.w3.org/1999/02/22-rdf-syntax-ns#"
   xmlns:svg="http://www.w3.org/2000/svg"
   xmlns="http://www.w3.org/2000/svg"
   xmlns:xlink="http://www.w3.org/1999/xlink"
   xmlns:sodipodi="http://sodipodi.sourceforge.net/DTD/sodipodi-0.dtd"
   xmlns:inkscape="http://www.inkscape.org/namespaces/inkscape"
   width="97.843697"
   height="24.179291"
   viewBox="0 0 97.843697 24.179291"
   fill="none"
   version="1.1"
   id="svg842"
   sodipodi:docname="mint.svg"
   inkscape:version="1.0.1 (c497b03c, 2020-09-10)">
  <metadata
     id="metadata846">
    <rdf:RDF>
      <cc:Work
         rdf:about="">
        <dc:format>image/svg+xml</dc:format>
        <dc:type
           rdf:resource="http://purl.org/dc/dcmitype/StillImage" />
        <dc:title></dc:title>
      </cc:Work>
    </rdf:RDF>
  </metadata>
  <sodipodi:namedview
     pagecolor="#ffffff"
     bordercolor="#666666"
     borderopacity="1"
     objecttolerance="10"
     gridtolerance="10"
     guidetolerance="10"
     inkscape:pageopacity="0"
     inkscape:pageshadow="2"
     inkscape:window-width="1440"
     inkscape:window-height="773"
     id="namedview844"
     showgrid="false"
     fit-margin-top="0"
     fit-margin-left="0"
     fit-margin-right="0"
     fit-margin-bottom="0"
     inkscape:zoom="3.6443407"
     inkscape:cx="100.73256"
     inkscape:cy="43.141372"
     inkscape:window-x="0"
     inkscape:window-y="25"
     inkscape:window-maximized="1"
     inkscape:current-layer="text850" />
  <defs
     id="defs840">
    <linearGradient
       id="paint0_linear"
       x1="3.5174999"
       y1="12"
       x2="138"
       y2="12"
       gradientUnits="userSpaceOnUse">
      <stop
         id="stop835" />
      <stop
         offset="1"
         stop-color="#14A623"
         id="stop837" />
    </linearGradient>
    <linearGradient
       inkscape:collect="always"
       xlink:href="#paint0_linear"
       id="linearGradient858"
       x1="2.6893615e-06"
       y1="12.089615"
       x2="97.843697"
       y2="12.089615"
       gradientUnits="userSpaceOnUse"
       gradientTransform="translate(-2.6893616e-6,3.0609131e-5)" />
    <linearGradient
       inkscape:collect="always"
       xlink:href="#paint0_linear"
       id="linearGradient908"
       gradientUnits="userSpaceOnUse"
       gradientTransform="translate(-2.6893616e-6,3.0609131e-5)"
       x1="2.6893615e-06"
       y1="12.089615"
       x2="97.843697"
       y2="12.089615" />
  </defs>
  <g
     aria-label="Mint it"
     id="text850"
     style="font-weight:800;font-size:29.3438px;line-height:1.25;font-family:Lexend;-inkscape-font-specification:'Lexend Ultra-Bold';fill:url(#linearGradient858);fill-opacity:1;stroke-width:0.733594">
    <path
       id="path895"
       style="fill:url(#linearGradient908);fill-opacity:1;stroke-width:0.733594"
       d="M 28.982422,0 C 27.945608,0 27.124017,0.26478036 26.517578,0.79296875 25.911139,1.3211571 25.607422,1.9947799 25.607422,2.8164062 c 0,0.8998766 0.293983,1.5949212 0.880859,2.0839844 0.606439,0.4890634 1.437764,0.734375 2.494141,0.734375 1.036815,0 1.858405,-0.2647803 2.464844,-0.7929687 0.606438,-0.5281884 0.910156,-1.2037643 0.910156,-2.0253907 0,-0.8998765 -0.303718,-1.5929679 -0.910156,-2.0820312 C 30.86039,0.24531167 30.038799,0 28.982422,0 Z M 81.193359,0 C 80.156545,0 79.334954,0.26478036 78.728516,0.79296875 78.122077,1.3211571 77.818359,1.9947799 77.818359,2.8164062 c 0,0.8998766 0.293984,1.5949212 0.88086,2.0839844 0.606438,0.4890634 1.437764,0.734375 2.49414,0.734375 1.036814,0 1.858405,-0.2647803 2.464844,-0.7929687 0.606439,-0.5281884 0.910156,-1.2037643 0.910156,-2.0253907 0,-0.8998765 -0.303717,-1.5929679 -0.910156,-2.0820312 C 83.071327,0.24531167 82.249736,0 81.193359,0 Z M 0,3.6386719 V 24.179688 h 6.1035156 v -4.900391 c 0,-1.017251 -0.00973,-1.957607 -0.029297,-2.818359 -0.019563,-0.860752 -0.0585,-1.672609 -0.1171876,-2.435547 l 3.6972657,5.839843 h 1.9355471 l 3.845703,-5.957031 c -0.05869,0.821626 -0.107358,1.672421 -0.146485,2.552735 -0.01956,0.880314 -0.03125,1.82067 -0.03125,2.818359 v 4.900391 h 6.103516 V 3.6386719 h -5.28125 L 10.740234,12.207031 5.4570312,3.6386719 Z M 56.580078,4.5195312 V 8.4804688 H 54.144531 V 13.46875 h 2.435547 v 10.710938 h 5.957031 V 13.46875 h 2.582032 V 8.4804688 H 62.537109 V 4.5195312 Z m 32.72461,0 V 8.4804688 H 86.869141 V 13.46875 h 2.435547 v 10.710938 h 5.957031 V 13.46875 H 97.84375 V 8.4804688 H 95.261719 V 4.5195312 Z M 46.482422,8.1582031 c -0.899877,0 -1.750671,0.1752182 -2.552734,0.5273438 -0.782502,0.332563 -1.44639,0.7920304 -1.994141,1.3789061 L 41.789062,8.4804688 H 36.271484 V 24.179688 h 5.957032 v -9.332032 c 0,-0.528188 0.184952,-0.968187 0.55664,-1.320312 C 43.156844,13.175218 43.637733,13 44.224609,13 c 1.193315,0 1.789063,0.663889 1.789063,1.994141 v 9.185547 h 5.957031 v -9.683594 c 0,-2.034504 -0.478936,-3.599811 -1.4375,-4.6953128 C 49.594202,8.7052794 48.24305,8.1582031 46.482422,8.1582031 Z M 25.988281,8.4804688 V 24.179688 h 5.957031 V 8.4804688 Z m 52.212891,0 V 24.179688 H 84.15625 V 8.4804688 Z" />
  </g>
</svg>
