<svg width="210" height="32" viewBox="0 0 210 32" fill="none" xmlns="http://www.w3.org/2000/svg">
<path d="M0.56 24V1.6H10.864C13.296 1.6 15.1627 2.09067 16.464 3.072C17.7653 4.05333 18.416 5.36533 18.416 7.008C18.416 9.376 17.52 10.9653 15.728 11.776C16.9013 12.224 17.84 12.9067 18.544 13.824C19.248 14.7413 19.6 15.8293 19.6 17.088C19.6 18.6453 19.2267 19.936 18.48 20.96C17.7333 21.984 16.72 22.752 15.44 23.264C14.16 23.7547 12.7413 24 11.184 24H0.56ZM6.96 10.368H9.68C10.4267 10.368 10.96 10.2293 11.28 9.952C11.6 9.65333 11.76 9.23733 11.76 8.704C11.76 8.21333 11.5893 7.81867 11.248 7.52C10.928 7.2 10.384 7.04 9.616 7.04H6.96V10.368ZM6.96 18.56H10.992C12.2507 18.56 12.88 17.9307 12.88 16.672C12.88 15.5413 12.1973 14.976 10.832 14.976H6.96V18.56ZM30.1557 24.288C28.7264 24.288 27.4571 23.9147 26.3477 23.168C25.2384 22.4 24.3637 21.3547 23.7237 20.032C23.0837 18.688 22.7637 17.152 22.7637 15.424C22.7637 13.6747 23.0731 12.1387 23.6917 10.816C24.3317 9.472 25.2064 8.42667 26.3157 7.68C27.4464 6.912 28.7477 6.528 30.2197 6.528C31.2651 6.528 32.1717 6.72 32.9397 7.104C33.7077 7.46667 34.3691 7.95733 34.9237 8.576V6.88H41.2917V24H34.7638V22.336C34.2091 22.9333 33.5477 23.4133 32.7797 23.776C32.0117 24.1173 31.1371 24.288 30.1557 24.288ZM32.0117 19.008C32.9504 19.008 33.6651 18.6987 34.1557 18.08C34.6677 17.4613 34.9237 16.576 34.9237 15.424C34.9237 14.272 34.6677 13.3867 34.1557 12.768C33.6651 12.128 32.9504 11.808 32.0117 11.808C31.0944 11.808 30.3797 12.128 29.8677 12.768C29.3771 13.3867 29.1317 14.272 29.1317 15.424C29.1317 16.576 29.3771 17.4613 29.8677 18.08C30.3797 18.6987 31.0944 19.008 32.0117 19.008ZM54.4345 24.32C52.7065 24.32 51.1598 23.936 49.7945 23.168C48.4505 22.4 47.3838 21.3547 46.5945 20.032C45.8265 18.688 45.4425 17.152 45.4425 15.424C45.4425 13.696 45.8265 12.1707 46.5945 10.848C47.3838 9.504 48.4505 8.448 49.7945 7.68C51.1598 6.912 52.7065 6.528 54.4345 6.528C55.9705 6.528 57.3892 6.76267 58.6905 7.232C59.9918 7.70133 61.0478 8.384 61.8585 9.28L58.3385 13.44C57.9758 13.056 57.5278 12.736 56.9945 12.48C56.4612 12.2027 55.7998 12.064 55.0105 12.064C54.0505 12.064 53.2825 12.3733 52.7065 12.992C52.1305 13.6107 51.8425 14.4107 51.8425 15.392C51.8425 16.352 52.1198 17.152 52.6745 17.792C53.2292 18.432 54.0078 18.752 55.0105 18.752C55.7998 18.752 56.4612 18.6347 56.9945 18.4C57.5278 18.144 57.9758 17.8133 58.3385 17.408L61.8265 21.6C61.0372 22.4747 59.9918 23.1467 58.6905 23.616C57.3892 24.0853 55.9705 24.32 54.4345 24.32ZM65.37 24V0.32H71.866V11.68L76.442 6.88H84.89L77.018 14.24L84.442 24H77.018L72.858 18.144L71.866 19.072V24H65.37ZM95.0792 31.36C93.5432 31.36 92.0179 31.1467 90.5032 30.72C89.0099 30.2933 87.7832 29.7387 86.8232 29.056L89.0312 24.704C89.7352 25.152 90.4819 25.4933 91.2712 25.728C92.0819 25.984 92.9672 26.112 93.9272 26.112C95.4206 26.112 96.4979 25.8027 97.1592 25.184C97.8206 24.5867 98.1512 23.6053 98.1512 22.24V22.016C97.5752 22.4853 96.8926 22.8587 96.1032 23.136C95.3139 23.392 94.4819 23.52 93.6072 23.52C92.0926 23.52 90.7486 23.1787 89.5752 22.496C88.4232 21.8133 87.5059 20.864 86.8232 19.648C86.1619 18.4107 85.8312 16.96 85.8312 15.296C85.8312 13.568 86.1619 12.0533 86.8232 10.752C87.4846 9.42933 88.3806 8.39467 89.5112 7.648C90.6632 6.90133 91.9752 6.528 93.4472 6.528C94.4926 6.528 95.4526 6.69867 96.3272 7.04C97.2232 7.36 97.9592 7.808 98.5352 8.384L98.6632 6.88H104.679V22.336C104.679 25.216 103.826 27.4347 102.119 28.992C100.413 30.5707 98.0659 31.36 95.0792 31.36ZM95.2392 18.88C96.2206 18.88 96.9779 18.5813 97.5112 17.984C98.0446 17.3653 98.3112 16.4907 98.3112 15.36C98.3112 14.2293 98.0446 13.3547 97.5112 12.736C96.9779 12.1173 96.2206 11.808 95.2392 11.808C94.2579 11.808 93.5006 12.1173 92.9672 12.736C92.4552 13.3547 92.1992 14.2293 92.1992 15.36C92.1992 16.4907 92.4552 17.3653 92.9672 17.984C93.5006 18.5813 94.2579 18.88 95.2392 18.88ZM109.946 24V6.88H115.962L116.122 9.184C116.72 8.37333 117.445 7.73333 118.298 7.264C119.152 6.77333 120.08 6.528 121.082 6.528C121.466 6.528 121.829 6.56 122.17 6.624C122.512 6.66667 122.842 6.73067 123.162 6.816L121.37 14.016C121.157 13.8667 120.816 13.728 120.346 13.6C119.898 13.472 119.408 13.408 118.874 13.408C118.085 13.408 117.477 13.6427 117.05 14.112C116.645 14.5813 116.442 15.232 116.442 16.064V24H109.946ZM134.321 24.32C132.465 24.32 130.811 23.936 129.361 23.168C127.91 22.4 126.769 21.3547 125.937 20.032C125.105 18.688 124.689 17.152 124.689 15.424C124.689 13.696 125.105 12.1707 125.937 10.848C126.769 9.504 127.91 8.448 129.361 7.68C130.811 6.912 132.465 6.528 134.321 6.528C136.177 6.528 137.819 6.912 139.249 7.68C140.699 8.448 141.83 9.504 142.641 10.848C143.473 12.1707 143.889 13.696 143.889 15.424C143.889 17.152 143.473 18.688 142.641 20.032C141.83 21.3547 140.699 22.4 139.249 23.168C137.819 23.936 136.177 24.32 134.321 24.32ZM134.321 18.88C135.195 18.88 135.91 18.56 136.465 17.92C137.041 17.2587 137.329 16.4267 137.329 15.424C137.329 14.4 137.041 13.568 136.465 12.928C135.91 12.2667 135.195 11.936 134.321 11.936C133.425 11.936 132.689 12.2667 132.113 12.928C131.537 13.568 131.249 14.4 131.249 15.424C131.249 16.4267 131.537 17.2587 132.113 17.92C132.689 18.56 133.425 18.88 134.321 18.88ZM153.782 24.352C151.84 24.352 150.347 23.7547 149.302 22.56C148.256 21.3653 147.734 19.6587 147.734 17.44V6.88H154.23V16.896C154.23 18.3467 154.902 19.072 156.246 19.072C156.886 19.072 157.408 18.88 157.814 18.496C158.219 18.112 158.422 17.632 158.422 17.056V6.88H164.918V24H158.966L158.742 22.112C158.166 22.7947 157.44 23.3387 156.566 23.744C155.712 24.1493 154.784 24.352 153.782 24.352ZM170.42 24V6.88H176.436L176.596 8.608C177.193 7.968 177.919 7.46667 178.772 7.104C179.647 6.72 180.575 6.528 181.556 6.528C183.476 6.528 184.948 7.12533 185.972 8.32C187.017 9.51467 187.54 11.2213 187.54 13.44V24H181.044V13.984C181.044 12.5333 180.393 11.808 179.092 11.808C178.452 11.808 177.929 12 177.524 12.384C177.119 12.768 176.916 13.248 176.916 13.824V24H170.42ZM198.677 24.352C197.269 24.352 196.011 23.9787 194.901 23.232C193.813 22.464 192.949 21.4187 192.309 20.096C191.691 18.752 191.381 17.2053 191.381 15.456C191.381 13.728 191.701 12.192 192.341 10.848C192.981 9.504 193.856 8.448 194.965 7.68C196.096 6.912 197.387 6.528 198.837 6.528C199.733 6.528 200.576 6.688 201.365 7.008C202.155 7.30667 202.827 7.712 203.381 8.224V0.32H209.909V24H204.053L203.829 22.4C203.275 22.9973 202.539 23.4773 201.621 23.84C200.725 24.1813 199.744 24.352 198.677 24.352ZM200.629 19.072C201.568 19.072 202.283 18.7627 202.773 18.144C203.285 17.504 203.541 16.608 203.541 15.456C203.541 14.304 203.285 13.4187 202.773 12.8C202.283 12.16 201.568 11.84 200.629 11.84C199.712 11.84 198.997 12.16 198.485 12.8C197.995 13.4187 197.749 14.304 197.749 15.456C197.749 16.608 197.995 17.504 198.485 18.144C198.997 18.7627 199.712 19.072 200.629 19.072Z" fill="url(#paint0_linear)"/>
<defs>
<linearGradient id="paint0_linear" x1="4.955" y1="12" x2="212" y2="12" gradientUnits="userSpaceOnUse">
<stop/>
<stop offset="1" stop-color="#14A623"/>
</linearGradient>
</defs>
</svg>
