<?xml version="1.0" encoding="UTF-8" standalone="no"?>
<svg
   xmlns:dc="http://purl.org/dc/elements/1.1/"
   xmlns:cc="http://creativecommons.org/ns#"
   xmlns:rdf="http://www.w3.org/1999/02/22-rdf-syntax-ns#"
   xmlns:svg="http://www.w3.org/2000/svg"
   xmlns="http://www.w3.org/2000/svg"
   xmlns:xlink="http://www.w3.org/1999/xlink"
   xmlns:sodipodi="http://sodipodi.sourceforge.net/DTD/sodipodi-0.dtd"
   xmlns:inkscape="http://www.inkscape.org/namespaces/inkscape"
   width="350.8418"
   height="34.710938"
   viewBox="0 0 350.8418 34.710937"
   fill="none"
   version="1.1"
   id="svg19"
   sodipodi:docname="Jungle&amp;Junglee.svg"
   inkscape:version="1.0.1 (c497b03c, 2020-09-10)">
  <sodipodi:namedview
     pagecolor="#ffffff"
     bordercolor="#666666"
     borderopacity="1"
     objecttolerance="10"
     gridtolerance="10"
     guidetolerance="10"
     inkscape:pageopacity="0"
     inkscape:pageshadow="2"
     inkscape:window-width="1440"
     inkscape:window-height="773"
     id="namedview841"
     showgrid="false"
     inkscape:zoom="2.1611588"
     inkscape:cx="186.93675"
     inkscape:cy="-3.3415178"
     inkscape:window-x="0"
     inkscape:window-y="25"
     inkscape:window-maximized="1"
     inkscape:current-layer="svg19" />
  <metadata
     id="metadata23">
    <rdf:RDF>
      <cc:Work
         rdf:about="">
        <dc:format>image/svg+xml</dc:format>
        <dc:type
           rdf:resource="http://purl.org/dc/dcmitype/StillImage" />
        <dc:title />
      </cc:Work>
    </rdf:RDF>
  </metadata>
  <defs
     id="defs17">
    <linearGradient
       id="paint0_linear"
       x1="9.0749998"
       y1="12"
       x2="309"
       y2="12"
       gradientUnits="userSpaceOnUse">
      <stop
         id="stop12" />
      <stop
         offset="1"
         stop-color="#14A623"
         id="stop14" />
    </linearGradient>
    <linearGradient
       xlink:href="#paint0_linear"
       id="linearGradient869"
       gradientUnits="userSpaceOnUse"
       x1="-21.40699"
       y1="14.591764"
       x2="308.04672"
       y2="14.591764"
       gradientTransform="translate(21.406253,2.1757812)" />
    <linearGradient
       inkscape:collect="always"
       xlink:href="#paint0_linear"
       id="linearGradient852"
       gradientUnits="userSpaceOnUse"
       gradientTransform="translate(21.406253,3.3515624)"
       x1="-21.40699"
       y1="14.591764"
       x2="308.04672"
       y2="14.591764" />
  </defs>
  <path
     id="path10"
     style="fill:url(#linearGradient852);fill-opacity:1"
     d="m 341.40039,0 c -1.84,0 -3.5993,0.50619785 -5.2793,1.5195312 -1.65333,1.0133333 -3.09364,2.4536458 -4.32031,4.3203125 l 4.59961,4.3203123 c 0.74667,-1.4399998 1.54706,-2.4523956 2.40039,-3.0390623 0.85333,-0.6133333 1.71961,-0.9199219 2.59961,-0.9199219 0.82667,0 1.49333,0.2120052 2,0.6386719 0.50667,0.4266667 0.75977,1.0007031 0.75977,1.7207031 0,0.9066667 -0.31899,1.6927082 -0.95899,2.3593752 -0.61333,0.639999 -1.44047,1.187291 -2.48047,1.640625 -1.04,0.453333 -2.17372,0.825807 -3.40039,1.11914 l 1.36133,5.201172 h 3.47852 l 0.36132,-1.201172 c 1.6,-0.48 3.02597,-1.200156 4.2793,-2.160156 1.25333,-0.986667 2.24094,-2.106042 2.96094,-3.359375 0.72,-1.279999 1.08008,-2.5989842 1.08008,-3.9589842 0,-1.5466666 -0.42792,-2.9334896 -1.28125,-4.1601562 C 348.73388,2.7876823 347.61451,1.8000781 346.20117,1.0800781 344.78784,0.36007806 343.18706,0 341.40039,0 Z M 8.2558594,1.1757812 8.3515625,3.5429687 c -1.365333,0.128 -2.6134736,0.502427 -3.7441406,1.1210937 C 3.4767549,5.2613957 2.5693848,6.0598332 1.8867188,7.0625 1.2040518,8.0438332 0.86328125,9.1651615 0.86328125,10.423828 c 0,1.856 0.57651565,3.35972 1.72851565,4.511719 1.152,1.130667 2.9112968,1.972676 5.2792969,2.527343 L 7.7441406,21.71875 C 6.8908066,21.526749 6.0369267,21.185979 5.1835938,20.695312 4.3302597,20.204645 3.4664639,19.521151 2.5917969,18.646484 L 0,23.03125 c 0.917333,1.023999 1.9931348,1.844223 3.2304688,2.46289 1.2586659,0.597333 2.7207656,0.981677 4.3847656,1.152344 l -0.064453,2.689453 h 3.3281246 l -0.0957,-2.65625 c 1.472,-0.128 2.77363,-0.490556 3.904297,-1.08789 1.130667,-0.618666 2.01625,-1.440844 2.65625,-2.464844 0.661333,-1.045334 0.992188,-2.281605 0.992188,-3.710938 0,-1.941333 -0.651791,-3.447005 -1.953126,-4.513672 -1.279999,-1.066665 -2.985807,-1.84527 -5.11914,-2.335937 l 0.126953,-4.0624998 c 0.853333,0.1493333 1.665594,0.4148281 2.433594,0.7988281 0.789333,0.384 1.524364,0.8852397 2.207031,1.5039067 L 18.271484,6.8398437 C 17.332818,5.9011771 16.308552,5.1760625 15.199219,4.6640624 14.089885,4.1307292 12.863531,3.7780884 11.519531,3.6074218 l 0.0957,-2.4316406 z M 111.45898,3.671875 v 23.679687 h 6.4961 V 3.671875 Z m 170.91993,0 V 27.351562 H 288.875 V 3.671875 Z M 165.49219,4.3125 c -1.494,0 -2.81675,0.2773612 -3.96875,0.8320312 -1.131,0.5333299 -2.0143,1.2683613 -2.6543,2.2070312 -0.64,0.9386701 -0.96094,2.0045487 -0.96094,3.1992186 0,0.448 0.0429,0.929406 0.12891,1.441406 0.085,0.512 0.28742,1.098436 0.60742,1.759766 -1.451,0.6827 -2.53867,1.609903 -3.26367,2.783203 -0.726,1.152 -1.08789,2.378387 -1.08789,3.679687 0,1.429301 0.40384,2.709144 1.21484,3.839844 0.81,1.1307 1.92013,2.01625 3.32813,2.65625 1.408,0.64 3.00878,0.960938 4.80078,0.960938 1.173,0 2.29237,-0.150519 3.35937,-0.449219 1.066,-0.2987 2.05857,-0.724597 2.97657,-1.279297 l 1.375,1.408203 h 7.87304 l -5.18359,-5.439453 c 1.088,-1.7707 1.79133,-3.787528 2.11133,-6.048828 h -6.14453 c -0.043,0.7467 -0.15957,1.450028 -0.35157,2.111328 -0.448,-0.4267 -0.98161,-0.937856 -1.59961,-1.535156 -0.598,-0.6187 -1.19596,-1.258622 -1.79296,-1.919922 -0.576,-0.6613 -1.05546,-1.291342 -1.43946,-1.888672 -0.384,-0.59733 -0.57617,-1.086703 -0.57617,-1.470703 0,-0.448 0.13802,-0.79072 0.41602,-1.02539 0.298,-0.2560004 0.67114,-0.3828129 1.11914,-0.3828129 0.384,0 0.72639,0.1168925 1.02539,0.3515629 0.298,0.21333 0.60773,0.714575 0.92773,1.503906 l 5.2168,-3.0078127 c -0.299,-0.87467 -0.82236,-1.6314844 -1.56836,-2.2714843 -0.726,-0.64 -1.601,-1.1313263 -2.625,-1.4726563 C 167.73186,4.4927987 166.64419,4.3125 165.49219,4.3125 Z M 25.621094,4.9511718 v 5.8886722 h 4.126953 v 8.832031 c 0,0.5973 -0.158516,1.076753 -0.478516,1.439453 -0.29867,0.3413 -0.704797,0.511719 -1.216797,0.511719 -0.512,0 -0.991453,-0.170419 -1.439453,-0.511719 -0.448,-0.3627 -0.854127,-0.8203 -1.216797,-1.375 l -3.80664,3.935547 c 0.704,1.280001 1.672816,2.272562 2.910156,2.976562 1.23733,0.6827 2.762842,1.023438 4.576172,1.023438 1.344,0 2.572341,-0.277331 3.68164,-0.832032 1.109401,-0.5547 1.992997,-1.36494 2.654297,-2.43164 0.6614,-1.0667 0.992188,-2.358347 0.992188,-3.873047 v -9.695312 h 3.457031 V 4.9511718 Z m 170.921876,0 v 5.8886722 h 4.12695 v 8.832031 c 0,0.5973 -0.16047,1.076753 -0.48047,1.439453 -0.299,0.3413 -0.70284,0.511719 -1.21484,0.511719 -0.512,0 -0.99145,-0.170419 -1.43945,-0.511719 -0.448,-0.3627 -0.8538,-0.8203 -1.2168,-1.375 l -3.80859,3.935547 c 0.704,1.28 1.67512,2.272562 2.91211,2.976562 1.23699,0.6827 2.76317,1.023438 4.57617,1.023438 1.344,0 2.57068,-0.277331 3.67968,-0.832032 1.109,-0.5547 1.99525,-1.36494 2.65625,-2.43164 0.661,-1.0667 0.99219,-2.358347 0.99219,-3.873047 v -9.695312 h 3.45703 V 4.9511718 Z M 8.5117188,8.4394531 8.6074219,11.927734 C 8.0740889,11.735734 7.6144688,11.499989 7.2304688,11.222656 6.8678017,10.923989 6.6875,10.551516 6.6875,10.103516 c 0,-0.4480004 0.1604687,-0.8105578 0.4804688,-1.087891 0.32,-0.2773334 0.76775,-0.4695052 1.34375,-0.5761719 z M 77.517578,9.8789062 c -0.9813,0 -1.908503,0.1921718 -2.783203,0.5761718 -0.8533,0.36267 -1.578381,0.863906 -2.175781,1.503906 l -0.160156,-1.726562 h -6.015626 v 17.11914 h 6.494141 V 17.175781 c 0,-0.576 0.204075,-1.055453 0.609375,-1.439453 0.4054,-0.384 0.928358,-0.576172 1.56836,-0.576172 1.3014,0 1.951171,0.725081 1.951171,2.175781 v 10.015625 h 6.496094 V 16.791015 c 0,-2.2187 -0.522959,-3.92447 -1.568359,-5.11914 -1.024,-1.19467 -2.496016,-1.7929688 -4.416016,-1.7929688 z m 17.441406,0 c -1.472,-10e-8 -2.783547,0.3744238 -3.935546,1.1210938 -1.130702,0.74667 -2.026202,1.780845 -2.6875,3.103515 -0.661401,1.3013 -0.992188,2.816922 -0.992188,4.544922 0,1.664 0.330786,3.114262 0.992188,4.351563 0.682598,1.215999 1.599953,2.164956 2.751953,2.847656 1.1733,0.6827 2.51655,1.023438 4.03125,1.023437 0.8746,0 1.706693,-0.126812 2.496093,-0.382812 0.7893,-0.2773 1.472829,-0.651794 2.048828,-1.121094 v 0.22461 c 0,1.3653 -0.330887,2.346059 -0.992187,2.943359 -0.6614,0.6187 -1.739122,0.927734 -3.232422,0.927734 -0.96,0 -1.84565,-0.126812 -2.65625,-0.382812 -0.7894,-0.2347 -1.536234,-0.577391 -2.240234,-1.025391 l -2.207031,4.353516 c 0.959999,0.6827 2.186287,1.237362 3.679687,1.664062 1.5146,0.4267 3.040172,0.638672 4.576172,0.638672 2.9866,0 5.332363,-0.788487 7.039063,-2.367187 1.7066,-1.5573 2.56055,-3.776251 2.56055,-6.65625 V 10.232422 h -6.01563 l -0.1289,1.503906 c -0.576007,-0.576 -1.311036,-1.025703 -2.207036,-1.345703 -0.8747,-0.34133 -1.83556,-0.5117188 -2.88086,-0.5117188 z m 35.507816,0 c -1.685,0 -3.17947,0.3843438 -4.48047,1.1523438 -1.301,0.768 -2.32527,1.823968 -3.07227,3.167969 -0.747,1.322699 -1.11914,2.848171 -1.11914,4.576171 0,1.728 0.38239,3.263422 1.15039,4.607422 0.768,1.3227 1.86788,2.368719 3.29688,3.136719 1.429,0.768 3.13514,1.152344 5.11914,1.152344 1.152,0 2.27333,-0.170419 3.36133,-0.511719 1.109,-0.3413 2.26007,-0.971372 3.45507,-1.888672 l -2.97461,-4.191406 c -0.51201,0.3627 -1.00365,0.628128 -1.47265,0.798828 -0.448,0.1493 -0.99281,0.224609 -1.63281,0.224609 -1.003,0 -1.84435,-0.170418 -2.52735,-0.511718 -0.661,-0.3627 -1.14045,-0.853957 -1.43945,-1.472657 h 10.65625 l 0.0312,-1.34375 c 0.043,-1.728 -0.28819,-3.253472 -0.99219,-4.576171 -0.683,-1.344 -1.66336,-2.399969 -2.94336,-3.167969 -1.259,-0.768 -2.73101,-1.1523438 -4.41601,-1.1523438 z m 117.97265,0 c -0.981,0 -1.91015,0.1921718 -2.78515,0.5761718 -0.853,0.36267 -1.57878,0.863906 -2.17578,1.503906 l -0.16016,-1.726562 h -6.01563 v 17.11914 h 6.4961 V 17.175781 c 0,-0.576 0.20437,-1.055453 0.60937,-1.439453 0.405,-0.384 0.92641,-0.576172 1.56641,-0.576172 1.301,0 1.95312,0.725081 1.95312,2.175781 v 10.015625 h 6.4961 V 16.791015 c 0,-2.2187 -0.52336,-3.92447 -1.56836,-5.11914 -1.024,-1.19467 -2.49602,-1.7929688 -4.41602,-1.7929688 z m 17.44141,0 c -1.472,-10e-8 -2.7855,0.3744238 -3.9375,1.1210938 -1.131,0.74667 -2.0265,1.780845 -2.6875,3.103515 -0.661,1.3013 -0.99219,2.816922 -0.99219,4.544922 0,1.664 0.33119,3.114262 0.99219,4.351563 0.683,1.215999 1.59995,2.164956 2.75195,2.847656 1.173,0.6827 2.51821,1.023438 4.03321,1.023437 0.875,0 1.70709,-0.126812 2.49609,-0.382812 0.789,-0.2773 1.47087,-0.651794 2.04687,-1.121094 v 0.22461 c 0,1.3653 -0.33118,2.346059 -0.99218,2.943359 -0.661,0.6187 -1.73942,0.927734 -3.23242,0.927734 -0.96,0 -1.8433,-0.126812 -2.6543,-0.382812 -0.789,-0.2347 -1.53624,-0.577391 -2.24024,-1.025391 l -2.20898,4.353516 c 0.96,0.6827 2.18669,1.237362 3.67969,1.664062 1.515,0.4267 3.04017,0.638672 4.57617,0.638672 2.987,0 5.33401,-0.788487 7.04101,-2.367187 1.707,-1.5573 2.5586,-3.776251 2.5586,-6.65625 V 10.232422 h -6.01563 l -0.12695,1.503906 c -0.576,-0.576 -1.31298,-1.025703 -2.20898,-1.345703 -0.875,-0.34133 -1.83391,-0.5117188 -2.87891,-0.5117188 z m 35.50586,0 c -1.685,0 -3.17652,0.3843438 -4.47852,1.1523438 -1.301,0.768 -2.32526,1.823968 -3.07226,3.167969 -0.746,1.322699 -1.1211,2.848171 -1.1211,4.576171 0,1.728 0.38435,3.263422 1.15235,4.607422 0.768,1.3227 1.86787,2.368719 3.29687,3.136719 1.43,0.768 3.13514,1.152344 5.11914,1.152344 1.152,0 2.27138,-0.170419 3.35938,-0.511719 1.11,-0.3413 2.26303,-0.971372 3.45703,-1.888672 l -2.97656,-4.191406 c -0.512,0.3627 -1.00266,0.628128 -1.47266,0.798828 -0.448,0.1493 -0.99086,0.224609 -1.63086,0.224609 -1.002,0 -1.84434,-0.170418 -2.52734,-0.511718 -0.661,-0.3627 -1.14241,-0.853957 -1.44141,-1.472657 h 10.65625 l 0.0312,-1.34375 c 0.043,-1.728 -0.28623,-3.253472 -0.99023,-4.576171 -0.682,-1.344 -1.66532,-2.399969 -2.94532,-3.167969 -1.258,-0.768 -2.73001,-1.1523438 -4.41601,-1.1523438 z m 19.71094,0 c -1.685,0 -3.17847,0.3843438 -4.48047,1.1523438 -1.301,0.768 -2.32527,1.823968 -3.07227,3.167969 -0.746,1.322699 -1.11914,2.848171 -1.11914,4.576171 0,1.728 0.38434,3.263422 1.15234,4.607422 0.76799,1.3227 1.86593,2.368719 3.29493,3.136719 1.43,0.768 3.13709,1.152344 5.12109,1.152344 1.152,0 2.27138,-0.170419 3.35938,-0.511719 1.11,-0.3413 2.26107,-0.971372 3.45507,-1.888672 l -2.97461,-4.191406 c -0.512,0.3627 -1.00265,0.628128 -1.47265,0.798828 -0.448,0.1493 -0.99281,0.224609 -1.63281,0.224609 -1.002,0 -1.84435,-0.170418 -2.52735,-0.511718 -0.661,-0.3627 -1.14045,-0.853957 -1.43945,-1.472657 h 10.65625 l 0.0312,-1.34375 c 0.043,-1.728 -0.28819,-3.253472 -0.99219,-4.576171 -0.682,-1.344 -1.66336,-2.399969 -2.94336,-3.167969 -1.258,-0.768 -2.73001,-1.1523438 -4.41601,-1.1523438 z M 43.695312,10.232422 v 10.558593 c 10e-7,2.2187 0.52296,3.926394 1.56836,5.121094 1.0453,1.1947 2.539069,1.791016 4.480469,1.791016 1.0026,1e-6 1.929803,-0.202122 2.783203,-0.607422 0.8746,-0.4053 1.599781,-0.950113 2.175781,-1.632813 l 0.224609,1.888672 h 5.951172 v -17.11914 h -6.496094 v 10.175781 c 10e-7,0.576 -0.202121,1.055453 -0.607421,1.439453 -0.4054,0.384 -0.92836,0.576172 -1.56836,0.576172 -1.344,0 -2.015625,-0.725081 -2.015625,-2.175781 V 10.232422 Z m 170.921878,0 v 10.558593 c 0,2.2187 0.52236,3.926394 1.56836,5.121094 1.045,1.1947 2.53847,1.791016 4.48047,1.791016 1.002,1e-6 1.9292,-0.202122 2.7832,-0.607422 0.874,-0.4053 1.59978,-0.950113 2.17578,-1.632813 l 0.22461,1.888672 h 5.95117 v -17.11914 h -6.49609 v 10.175781 c 0,0.576 -0.20242,1.055453 -0.60742,1.439453 -0.406,0.384 -0.92836,0.576172 -1.56836,0.576172 -1.344,0 -2.01563,-0.725081 -2.01563,-2.175781 V 10.232422 Z m -84.02344,4.863281 c 0.725,0 1.30152,0.180269 1.72852,0.542969 0.448,0.3413 0.68212,0.822706 0.70312,1.441406 H 127.875 c 0.341,-1.3227 1.24675,-1.984375 2.71875,-1.984375 z m 170.92187,0 c 0.726,0 1.30252,0.180269 1.72852,0.542969 0.448,0.3413 0.68213,0.822706 0.70313,1.441406 h -5.15235 c 0.342,-1.3227 1.2487,-1.984375 2.7207,-1.984375 z m 19.70899,0 c 0.726,0 1.30251,0.180269 1.72851,0.542969 0.448,0.3413 0.68408,0.822706 0.70508,1.441406 h -5.15234 c 0.342,-1.3227 1.24675,-1.984375 2.71875,-1.984375 z m -224.472657,0.06445 c 0.9813,0 1.738084,0.309034 2.271485,0.927734 0.533298,0.6187 0.798828,1.492347 0.798828,2.623047 0,1.1307 -0.26553,2.0063 -0.798828,2.625 -0.533401,0.5973 -1.290185,0.896485 -2.271485,0.896485 -0.9814,0 -1.740137,-0.299185 -2.273437,-0.896485 -0.512,-0.6187 -0.767579,-1.4943 -0.767578,-2.625 -10e-7,-1.1307 0.255578,-2.004347 0.767578,-2.623047 0.5333,-0.6187 1.292037,-0.927734 2.273437,-0.927734 z m 170.919927,0 c 0.98099,0 1.73848,0.309034 2.27148,0.927734 0.533,0.6187 0.80078,1.492347 0.80078,2.623047 0,1.1307 -0.26778,2.0063 -0.80078,2.625 -0.533,0.5973 -1.29049,0.896485 -2.27148,0.896485 -0.981,0 -1.73849,-0.299185 -2.27149,-0.896485 -0.512,-0.6187 -0.76758,-1.4943 -0.76758,-2.625 0,-1.1307 0.25558,-2.004347 0.76758,-2.623047 0.533,-0.6187 1.29049,-0.927734 2.27149,-0.927734 z M 161.58789,17.75195 c 0.298,0.3413 0.62919,0.691987 0.99219,1.054687 l 3.45703,3.521485 c -0.619,0.256001 -1.27113,0.382812 -1.95313,0.382812 -1.195,0 -2.11195,-0.233825 -2.75195,-0.703125 -0.64,-0.4907 -0.95898,-1.184078 -0.95898,-2.080078 0,-0.8747 0.40384,-1.599781 1.21484,-2.175781 z M 10.527344,18.167969 c 0.576,0.213333 1.055453,0.478828 1.439453,0.798828 0.384,0.32 0.576172,0.71426 0.576172,1.183593 0,0.469333 -0.180302,0.853677 -0.542969,1.152344 -0.341333,0.277333 -0.791037,0.459588 -1.345703,0.544922 z m 330.234376,3.591796 c -1.04,0 -1.89388,0.347683 -2.56055,1.041016 -0.66666,0.666667 -1,1.532943 -1,2.599609 0,1.173334 0.30659,2.080703 0.91992,2.720703 0.64,0.640001 1.52063,0.958985 2.64063,0.958985 1.06667,0 1.91859,-0.333333 2.55859,-1 0.66667,-0.693333 1,-1.586354 1,-2.679688 0,-1.173333 -0.30659,-2.066354 -0.91992,-2.679687 -0.61333,-0.64 -1.492,-0.960938 -2.63867,-0.960938 z" />
</svg>
