<svg width="309" height="32" viewBox="0 0 309 32" fill="none" xmlns="http://www.w3.org/2000/svg">
<path d="M7.67063 24.32C5.8573 24.32 4.33196 23.9787 3.09463 23.296C1.85729 22.592 0.886628 21.6 0.182628 20.32L3.99063 16.384C4.3533 16.9387 4.75863 17.3973 5.20663 17.76C5.65463 18.1013 6.13463 18.272 6.64663 18.272C7.15863 18.272 7.56396 18.1013 7.86263 17.76C8.18263 17.3973 8.34263 16.9173 8.34263 16.32V7.488H4.21463V1.6H18.4546V7.488H14.9986V17.184C14.9986 18.6987 14.668 19.9893 14.0066 21.056C13.3453 22.1227 12.46 22.9333 11.3506 23.488C10.2413 24.0427 9.01463 24.32 7.67063 24.32ZM28.3374 24.352C26.396 24.352 24.9027 23.7547 23.8574 22.56C22.812 21.3653 22.2894 19.6587 22.2894 17.44V6.88H28.7854V16.896C28.7854 18.3467 29.4574 19.072 30.8014 19.072C31.4414 19.072 31.964 18.88 32.3694 18.496C32.7747 18.112 32.9774 17.632 32.9774 17.056V6.88H39.4734V24H33.5214L33.2974 22.112C32.7214 22.7947 31.996 23.3387 31.1214 23.744C30.268 24.1493 29.34 24.352 28.3374 24.352ZM44.9756 24V6.88H50.9916L51.1516 8.608C51.749 7.968 52.4743 7.46667 53.3276 7.104C54.2023 6.72 55.1303 6.528 56.1116 6.528C58.0316 6.528 59.5036 7.12533 60.5276 8.32C61.573 9.51467 62.0956 11.2213 62.0956 13.44V24H55.5996V13.984C55.5996 12.5333 54.949 11.808 53.6476 11.808C53.0076 11.808 52.485 12 52.0796 12.384C51.6743 12.768 51.4716 13.248 51.4716 13.824V24H44.9756ZM75.1849 31.36C73.6489 31.36 72.1235 31.1467 70.6089 30.72C69.1155 30.2933 67.8889 29.7387 66.9289 29.056L69.1369 24.704C69.8409 25.152 70.5875 25.4933 71.3769 25.728C72.1875 25.984 73.0729 26.112 74.0329 26.112C75.5262 26.112 76.6035 25.8027 77.2649 25.184C77.9262 24.5867 78.2569 23.6053 78.2569 22.24V22.016C77.6809 22.4853 76.9982 22.8587 76.2089 23.136C75.4195 23.392 74.5875 23.52 73.7129 23.52C72.1982 23.52 70.8542 23.1787 69.6809 22.496C68.5289 21.8133 67.6115 20.864 66.9289 19.648C66.2675 18.4107 65.9369 16.96 65.9369 15.296C65.9369 13.568 66.2675 12.0533 66.9289 10.752C67.5902 9.42933 68.4862 8.39467 69.6169 7.648C70.7689 6.90133 72.0809 6.528 73.5529 6.528C74.5982 6.528 75.5582 6.69867 76.4329 7.04C77.3289 7.36 78.0649 7.808 78.6409 8.384L78.7689 6.88H84.7849V22.336C84.7849 25.216 83.9315 27.4347 82.2249 28.992C80.5182 30.5707 78.1715 31.36 75.1849 31.36ZM75.3449 18.88C76.3262 18.88 77.0835 18.5813 77.6169 17.984C78.1502 17.3653 78.4169 16.4907 78.4169 15.36C78.4169 14.2293 78.1502 13.3547 77.6169 12.736C77.0835 12.1173 76.3262 11.808 75.3449 11.808C74.3635 11.808 73.6062 12.1173 73.0729 12.736C72.5609 13.3547 72.3049 14.2293 72.3049 15.36C72.3049 16.4907 72.5609 17.3653 73.0729 17.984C73.6062 18.5813 74.3635 18.88 75.3449 18.88ZM90.0519 24V0.32H96.5479V24H90.0519ZM109.956 24.32C107.972 24.32 106.265 23.936 104.836 23.168C103.407 22.4 102.308 21.3547 101.54 20.032C100.772 18.688 100.388 17.152 100.388 15.424C100.388 13.696 100.761 12.1707 101.508 10.848C102.255 9.504 103.279 8.448 104.58 7.68C105.881 6.912 107.375 6.528 109.06 6.528C110.745 6.528 112.217 6.912 113.476 7.68C114.756 8.448 115.737 9.504 116.42 10.848C117.124 12.1707 117.455 13.696 117.412 15.424L117.38 16.768H106.724C107.023 17.3867 107.503 17.8773 108.164 18.24C108.847 18.5813 109.689 18.752 110.692 18.752C111.332 18.752 111.876 18.6773 112.324 18.528C112.793 18.3573 113.284 18.0907 113.796 17.728L116.772 21.92C115.577 22.8373 114.425 23.4667 113.316 23.808C112.228 24.1493 111.108 24.32 109.956 24.32ZM109.188 11.744C107.716 11.744 106.809 12.4053 106.468 13.728H111.62C111.599 13.1093 111.364 12.6293 110.916 12.288C110.489 11.9253 109.913 11.744 109.188 11.744ZM142.23 24.32C140.438 24.32 138.838 24 137.43 23.36C136.022 22.72 134.912 21.8347 134.102 20.704C133.291 19.5733 132.886 18.2933 132.886 16.864C132.886 15.5627 133.248 14.336 133.974 13.184C134.699 12.0107 135.787 11.0827 137.238 10.4C136.918 9.73867 136.715 9.152 136.63 8.64C136.544 8.128 136.502 7.648 136.502 7.2C136.502 6.00533 136.822 4.93867 137.462 4C138.102 3.06133 138.987 2.32533 140.118 1.792C141.27 1.23733 142.592 0.959999 144.086 0.959999C145.238 0.959999 146.326 1.14133 147.35 1.504C148.374 1.84533 149.248 2.336 149.974 2.976C150.72 3.616 151.243 4.37333 151.542 5.248L146.326 8.256C146.006 7.46667 145.696 6.96533 145.398 6.752C145.099 6.51733 144.758 6.4 144.374 6.4C143.926 6.4 143.552 6.528 143.254 6.784C142.976 7.01867 142.838 7.36 142.838 7.808C142.838 8.192 143.03 8.68267 143.414 9.28C143.798 9.87733 144.278 10.5067 144.854 11.168C145.451 11.8293 146.048 12.4693 146.646 13.088C147.264 13.6853 147.798 14.1973 148.246 14.624C148.438 13.9627 148.555 13.2587 148.598 12.512H154.742C154.422 14.7733 153.718 16.7893 152.63 18.56L157.814 24H149.942L148.566 22.592C147.648 23.1467 146.656 23.5733 145.59 23.872C144.523 24.1707 143.403 24.32 142.23 24.32ZM138.966 16.576C138.966 17.472 139.286 18.1653 139.926 18.656C140.566 19.1253 141.483 19.36 142.678 19.36C143.36 19.36 144.011 19.232 144.63 18.976L141.174 15.456C140.811 15.0933 140.48 14.7413 140.182 14.4C139.371 14.976 138.966 15.7013 138.966 16.576ZM178.592 24.32C176.779 24.32 175.253 23.9787 174.016 23.296C172.779 22.592 171.808 21.6 171.104 20.32L174.912 16.384C175.275 16.9387 175.68 17.3973 176.128 17.76C176.576 18.1013 177.056 18.272 177.568 18.272C178.08 18.272 178.485 18.1013 178.784 17.76C179.104 17.3973 179.264 16.9173 179.264 16.32V7.488H175.136V1.6H189.376V7.488H185.92V17.184C185.92 18.6987 185.589 19.9893 184.928 21.056C184.267 22.1227 183.381 22.9333 182.272 23.488C181.163 24.0427 179.936 24.32 178.592 24.32ZM199.259 24.352C197.317 24.352 195.824 23.7547 194.779 22.56C193.733 21.3653 193.211 19.6587 193.211 17.44V6.88H199.707V16.896C199.707 18.3467 200.379 19.072 201.723 19.072C202.363 19.072 202.885 18.88 203.291 18.496C203.696 18.112 203.899 17.632 203.899 17.056V6.88H210.395V24H204.443L204.219 22.112C203.643 22.7947 202.917 23.3387 202.043 23.744C201.189 24.1493 200.261 24.352 199.259 24.352ZM215.897 24V6.88H221.913L222.073 8.608C222.67 7.968 223.396 7.46667 224.249 7.104C225.124 6.72 226.052 6.528 227.033 6.528C228.953 6.528 230.425 7.12533 231.449 8.32C232.494 9.51467 233.017 11.2213 233.017 13.44V24H226.521V13.984C226.521 12.5333 225.87 11.808 224.569 11.808C223.929 11.808 223.406 12 223.001 12.384C222.596 12.768 222.393 13.248 222.393 13.824V24H215.897ZM246.106 31.36C244.57 31.36 243.045 31.1467 241.53 30.72C240.037 30.2933 238.81 29.7387 237.85 29.056L240.058 24.704C240.762 25.152 241.509 25.4933 242.298 25.728C243.109 25.984 243.994 26.112 244.954 26.112C246.447 26.112 247.525 25.8027 248.186 25.184C248.847 24.5867 249.178 23.6053 249.178 22.24V22.016C248.602 22.4853 247.919 22.8587 247.13 23.136C246.341 23.392 245.509 23.52 244.634 23.52C243.119 23.52 241.775 23.1787 240.602 22.496C239.45 21.8133 238.533 20.864 237.85 19.648C237.189 18.4107 236.858 16.96 236.858 15.296C236.858 13.568 237.189 12.0533 237.85 10.752C238.511 9.42933 239.407 8.39467 240.538 7.648C241.69 6.90133 243.002 6.528 244.474 6.528C245.519 6.528 246.479 6.69867 247.354 7.04C248.25 7.36 248.986 7.808 249.562 8.384L249.69 6.88H255.706V22.336C255.706 25.216 254.853 27.4347 253.146 28.992C251.439 30.5707 249.093 31.36 246.106 31.36ZM246.266 18.88C247.247 18.88 248.005 18.5813 248.538 17.984C249.071 17.3653 249.338 16.4907 249.338 15.36C249.338 14.2293 249.071 13.3547 248.538 12.736C248.005 12.1173 247.247 11.808 246.266 11.808C245.285 11.808 244.527 12.1173 243.994 12.736C243.482 13.3547 243.226 14.2293 243.226 15.36C243.226 16.4907 243.482 17.3653 243.994 17.984C244.527 18.5813 245.285 18.88 246.266 18.88ZM260.973 24V0.32H267.469V24H260.973ZM280.877 24.32C278.893 24.32 277.187 23.936 275.757 23.168C274.328 22.4 273.229 21.3547 272.461 20.032C271.693 18.688 271.309 17.152 271.309 15.424C271.309 13.696 271.683 12.1707 272.429 10.848C273.176 9.504 274.2 8.448 275.501 7.68C276.803 6.912 278.296 6.528 279.981 6.528C281.667 6.528 283.139 6.912 284.397 7.68C285.677 8.448 286.659 9.504 287.341 10.848C288.045 12.1707 288.376 13.696 288.333 15.424L288.301 16.768H277.645C277.944 17.3867 278.424 17.8773 279.085 18.24C279.768 18.5813 280.611 18.752 281.613 18.752C282.253 18.752 282.797 18.6773 283.245 18.528C283.715 18.3573 284.205 18.0907 284.717 17.728L287.693 21.92C286.499 22.8373 285.347 23.4667 284.237 23.808C283.149 24.1493 282.029 24.32 280.877 24.32ZM280.109 11.744C278.637 11.744 277.731 12.4053 277.389 13.728H282.541C282.52 13.1093 282.285 12.6293 281.837 12.288C281.411 11.9253 280.835 11.744 280.109 11.744ZM300.587 24.32C298.603 24.32 296.897 23.936 295.467 23.168C294.038 22.4 292.939 21.3547 292.171 20.032C291.403 18.688 291.019 17.152 291.019 15.424C291.019 13.696 291.393 12.1707 292.139 10.848C292.886 9.504 293.91 8.448 295.211 7.68C296.513 6.912 298.006 6.528 299.691 6.528C301.377 6.528 302.849 6.912 304.107 7.68C305.387 8.448 306.369 9.504 307.051 10.848C307.755 12.1707 308.086 13.696 308.043 15.424L308.011 16.768H297.355C297.654 17.3867 298.134 17.8773 298.795 18.24C299.478 18.5813 300.321 18.752 301.323 18.752C301.963 18.752 302.507 18.6773 302.955 18.528C303.425 18.3573 303.915 18.0907 304.427 17.728L307.403 21.92C306.209 22.8373 305.057 23.4667 303.947 23.808C302.859 24.1493 301.739 24.32 300.587 24.32ZM299.819 11.744C298.347 11.744 297.441 12.4053 297.099 13.728H302.251C302.23 13.1093 301.995 12.6293 301.547 12.288C301.121 11.9253 300.545 11.744 299.819 11.744Z" fill="url(#paint0_linear)"/>
<defs>
<linearGradient id="paint0_linear" x1="9.075" y1="12" x2="309" y2="12" gradientUnits="userSpaceOnUse">
<stop/>
<stop offset="1" stop-color="#14A623"/>
</linearGradient>
</defs>
</svg>
