<?xml version="1.0" encoding="UTF-8" standalone="no"?>
<svg
   xmlns:dc="http://purl.org/dc/elements/1.1/"
   xmlns:cc="http://creativecommons.org/ns#"
   xmlns:rdf="http://www.w3.org/1999/02/22-rdf-syntax-ns#"
   xmlns:svg="http://www.w3.org/2000/svg"
   xmlns="http://www.w3.org/2000/svg"
   xmlns:xlink="http://www.w3.org/1999/xlink"
   width="329.45288"
   height="33.535156"
   viewBox="0 0 329.45288 33.535156"
   fill="none"
   version="1.1"
   id="svg19">
  <metadata
     id="metadata23">
    <rdf:RDF>
      <cc:Work
         rdf:about="">
        <dc:format>image/svg+xml</dc:format>
        <dc:type
           rdf:resource="http://purl.org/dc/dcmitype/StillImage" />
        <dc:title></dc:title>
      </cc:Work>
    </rdf:RDF>
  </metadata>
  <defs
     id="defs17">
    <linearGradient
       id="paint0_linear"
       x1="9.0749998"
       y1="12"
       x2="309"
       y2="12"
       gradientUnits="userSpaceOnUse">
      <stop
         id="stop12" />
      <stop
         offset="1"
         stop-color="#14A623"
         id="stop14" />
    </linearGradient>
    <linearGradient
       xlink:href="#paint0_linear"
       id="linearGradient869"
       gradientUnits="userSpaceOnUse"
       x1="-21.40699"
       y1="14.591764"
       x2="308.04672"
       y2="14.591764"
       gradientTransform="translate(21.406253,2.1757812)" />
  </defs>
  <path
     id="path10"
     style="fill:url(#linearGradient869);fill-opacity:1"
     d="m 8.255862,0 0.0957,2.3671875 c -1.365333,0.128 -2.613473,0.502427 -3.74414,1.1210937 C 3.476755,4.0856145 2.569385,4.884052 1.886719,5.8867187 1.204052,6.868052 0.863281,7.9893802 0.863281,9.2480468 c 0,1.8560002 0.576516,3.3597192 1.728516,4.5117182 1.152,1.130667 2.911297,1.972677 5.279297,2.527344 l -0.126953,4.25586 C 6.890807,20.350968 6.036927,20.010198 5.183594,19.519531 4.33026,19.028864 3.466464,18.34537 2.591797,17.470703 L 0,21.855469 c 0.917333,1.023999 1.993135,1.844223 3.230469,2.46289 1.258666,0.597333 2.720765,0.981677 4.384765,1.152344 l -0.06445,2.689453 h 3.328125 l -0.0957,-2.65625 c 1.472,-0.128 2.77363,-0.490557 3.904297,-1.087891 1.130667,-0.618666 2.01625,-1.440843 2.65625,-2.464843 0.661333,-1.045334 0.992187,-2.281605 0.992187,-3.710938 0,-1.941333 -0.651791,-3.447005 -1.953125,-4.513672 -1.28,-1.066666 -2.985807,-1.84527 -5.11914,-2.335937 l 0.126953,-4.0625 c 0.853333,0.1493333 1.665594,0.4148281 2.433594,0.7988281 0.789333,0.384 1.524364,0.8852396 2.207031,1.5039062 L 18.271487,5.6640624 C 17.332821,4.7253958 16.308555,4.0002812 15.199222,3.4882812 14.089888,2.9549479 12.863534,2.6023072 11.519534,2.4316406 L 11.615237,0 Z M 111.45899,2.4960937 V 26.175781 h 6.49609 V 2.4960937 Z m 170.91992,0 V 26.175781 H 288.875 V 2.4960937 Z m -116.88672,0.640625 c -1.494,0 -2.81675,0.2773613 -3.96875,0.8320313 -1.131,0.5333299 -2.0143,1.2683612 -2.6543,2.2070312 -0.64,0.93867 -0.96094,2.0045487 -0.96094,3.1992188 0,0.448 0.0429,0.929406 0.12891,1.441406 0.085,0.512 0.28742,1.098436 0.60742,1.759766 -1.451,0.6827 -2.53867,1.609903 -3.26367,2.783203 -0.726,1.152 -1.08789,2.378387 -1.08789,3.679687 0,1.4293 0.40384,2.709144 1.21484,3.839844 0.81,1.1307 1.92013,2.01625 3.32813,2.65625 1.408,0.64 3.00878,0.960937 4.80078,0.960937 1.173,0 2.29237,-0.150518 3.35937,-0.449218 1.066,-0.2987 2.05857,-0.724597 2.97657,-1.279297 l 1.375,1.408203 h 7.87304 l -5.18359,-5.439453 c 1.088,-1.7707 1.79133,-3.787528 2.11133,-6.048828 h -6.14453 c -0.043,0.7467 -0.15957,1.450028 -0.35157,2.111328 -0.448,-0.4267 -0.98161,-0.937856 -1.59961,-1.535156 -0.598,-0.6187 -1.19596,-1.258622 -1.79296,-1.919922 -0.576,-0.6613 -1.05546,-1.291342 -1.43946,-1.888672 -0.384,-0.59733 -0.57617,-1.086703 -0.57617,-1.470703 0,-0.4480001 0.13802,-0.7907207 0.41602,-1.0253907 0.298,-0.256 0.67114,-0.3828125 1.11914,-0.3828125 0.384,0 0.72639,0.1168925 1.02539,0.3515625 0.298,0.21333 0.60773,0.7145763 0.92773,1.5039067 l 5.2168,-3.0078129 c -0.299,-0.87467 -0.82236,-1.6314844 -1.56836,-2.2714844 -0.726,-0.64 -1.601,-1.1313263 -2.625,-1.4726563 -1.024,-0.36267 -2.11167,-0.5429687 -3.26367,-0.5429687 z M 25.621097,3.7753906 v 5.8886718 h 4.126953 v 8.8320306 c 0,0.5973 -0.158516,1.076754 -0.478516,1.439454 -0.29867,0.3413 -0.704797,0.511718 -1.216797,0.511718 -0.512,0 -0.991453,-0.170418 -1.439453,-0.511718 -0.448,-0.3627 -0.854127,-0.8203 -1.216797,-1.375 l -3.80664,3.935546 c 0.704,1.280001 1.672816,2.272563 2.910156,2.976563 1.23733,0.6827 2.762842,1.023437 4.576172,1.023437 1.344,0 2.572341,-0.277331 3.68164,-0.832031 1.109401,-0.5547 1.992997,-1.36494 2.654297,-2.43164 0.6614,-1.0667 0.992188,-2.358347 0.992188,-3.873047 V 9.6640624 h 3.457031 V 3.7753906 Z m 170.921873,0 v 5.8886718 h 4.12695 v 8.8320306 c 0,0.5973 -0.16047,1.076754 -0.48047,1.439454 -0.299,0.3413 -0.70284,0.511718 -1.21484,0.511718 -0.512,0 -0.99145,-0.170418 -1.43945,-0.511718 -0.448,-0.3627 -0.8538,-0.8203 -1.2168,-1.375 l -3.80859,3.935546 c 0.704,1.28 1.67511,2.272563 2.9121,2.976563 1.237,0.6827 2.76318,1.023437 4.57618,1.023437 1.344,0 2.57068,-0.277331 3.67968,-0.832031 1.109,-0.5547 1.99525,-1.36494 2.65625,-2.43164 0.661,-1.0667 0.99219,-2.358347 0.99219,-3.873047 V 9.6640624 h 3.45703 V 3.7753906 Z M 8.511722,7.2636718 8.607422,10.751953 C 8.074089,10.559953 7.614469,10.324208 7.230469,10.046875 6.867802,9.7482083 6.6875,9.3757343 6.6875,8.9277343 c 0,-0.448 0.160469,-0.8105573 0.480469,-1.0878906 0.32,-0.2773333 0.76775,-0.4695052 1.34375,-0.5761719 z M 77.517581,8.703125 c -0.9813,0 -1.908503,0.1921718 -2.783203,0.5761718 -0.8533,0.36267 -1.578381,0.8639062 -2.175781,1.5039062 L 72.398441,9.0566406 H 66.382815 V 26.175781 h 6.494141 V 16 c 0,-0.576 0.204075,-1.055453 0.609375,-1.439453 0.4054,-0.384 0.928359,-0.576172 1.56836,-0.576172 1.3014,0 1.951171,0.725081 1.951171,2.175781 v 10.015625 h 6.496094 V 15.615234 c 0,-2.2187 -0.522959,-3.92447 -1.568359,-5.11914 -1.024,-1.1946703 -2.496016,-1.792969 -4.416016,-1.792969 z m 17.441406,0 c -1.472,-10e-8 -2.783546,0.3744237 -3.935546,1.1210937 -1.130701,0.7466703 -2.026201,1.7808453 -2.6875,3.1035153 -0.661401,1.3013 -0.992188,2.816922 -0.992188,4.544922 0,1.664 0.330787,3.114262 0.992188,4.351563 0.682599,1.215999 1.599953,2.164956 2.751953,2.847656 1.1733,0.6827 2.51655,1.023437 4.03125,1.023437 0.8746,0 1.706693,-0.126812 2.496093,-0.382812 0.7893,-0.2773 1.472829,-0.651794 2.048828,-1.121094 v 0.224609 c 0,1.3653 -0.330887,2.34606 -0.992187,2.94336 -0.6614,0.6187 -1.739122,0.927734 -3.232422,0.927734 -0.96,0 -1.84565,-0.126812 -2.65625,-0.382812 -0.7894,-0.2347 -1.536234,-0.577391 -2.240234,-1.025391 l -2.207031,4.353516 c 0.96,0.6827 2.186287,1.237362 3.679687,1.664062 1.5146,0.4267 3.040172,0.638672 4.576172,0.638672 2.9866,0 5.33236,-0.788487 7.03906,-2.367187 1.7066,-1.5573 2.56055,-3.776251 2.56055,-6.65625 V 9.0566406 h -6.01563 l -0.1289,1.5039064 C 99.470878,9.9845468 98.735847,9.5348437 97.839847,9.2148437 96.965147,8.8735137 96.004287,8.703125 94.958987,8.703125 Z m 35.507813,0 c -1.685,0 -3.17947,0.3843437 -4.48047,1.1523437 -1.301,0.7680003 -2.32527,1.8239683 -3.07227,3.1679683 -0.747,1.3227 -1.11914,2.848172 -1.11914,4.576172 0,1.728 0.38239,3.263422 1.15039,4.607422 0.768,1.3227 1.86788,2.368719 3.29688,3.136719 1.429,0.768 3.13514,1.152343 5.11914,1.152343 1.152,0 2.27333,-0.170418 3.36133,-0.511718 1.109,-0.3413 2.26007,-0.971372 3.45507,-1.888672 l -2.9746,-4.191406 c -0.51201,0.3627 -1.00366,0.628128 -1.47266,0.798828 -0.448,0.1493 -0.99281,0.224609 -1.63281,0.224609 -1.003,0 -1.84435,-0.170419 -2.52735,-0.511719 -0.661,-0.3627 -1.14045,-0.853956 -1.43945,-1.472656 h 10.65625 l 0.0312,-1.34375 c 0.043,-1.728 -0.28819,-3.253472 -0.99219,-4.576172 -0.683,-1.344 -1.66336,-2.399968 -2.94336,-3.1679683 -1.259,-0.768 -2.73101,-1.1523437 -4.41601,-1.1523437 z m 117.97265,0 c -0.981,0 -1.91015,0.1921718 -2.78515,0.5761718 -0.853,0.36267 -1.57878,0.8639062 -2.17578,1.5039062 l -0.16016,-1.7265624 h -6.01563 V 26.175781 h 6.4961 V 16 c 0,-0.576 0.20437,-1.055453 0.60937,-1.439453 0.405,-0.384 0.92641,-0.576172 1.56641,-0.576172 1.301,0 1.95312,0.725081 1.95312,2.175781 v 10.015625 h 6.4961 V 15.615234 c 0,-2.2187 -0.52336,-3.92447 -1.56836,-5.11914 -1.024,-1.1946703 -2.49602,-1.792969 -4.41602,-1.792969 z m 17.44141,0 c -1.472,-10e-8 -2.7855,0.3744237 -3.9375,1.1210937 -1.131,0.7466703 -2.0265,1.7808453 -2.6875,3.1035153 -0.661,1.3013 -0.99219,2.816922 -0.99219,4.544922 0,1.664 0.33119,3.114262 0.99219,4.351563 0.683,1.215999 1.59995,2.164956 2.75195,2.847656 1.173,0.6827 2.51821,1.023437 4.03321,1.023437 0.875,0 1.70709,-0.126812 2.49609,-0.382812 0.789,-0.2773 1.47087,-0.651794 2.04687,-1.121094 v 0.224609 c 0,1.3653 -0.33118,2.34606 -0.99218,2.94336 -0.661,0.6187 -1.73943,0.927734 -3.23243,0.927734 -0.96,0 -1.84329,-0.126812 -2.65429,-0.382812 -0.789,-0.2347 -1.53624,-0.577391 -2.24024,-1.025391 l -2.20898,4.353516 c 0.96,0.6827 2.18669,1.237362 3.67969,1.664062 1.515,0.4267 3.04017,0.638672 4.57617,0.638672 2.987,0 5.33401,-0.788487 7.04101,-2.367187 1.707,-1.5573 2.5586,-3.776251 2.5586,-6.65625 V 9.0566406 h -6.01563 l -0.12695,1.5039064 c -0.576,-0.5760002 -1.31298,-1.0257033 -2.20898,-1.3457033 -0.875,-0.34133 -1.83391,-0.5117187 -2.87891,-0.5117187 z m 35.50586,0 c -1.685,0 -3.17652,0.3843437 -4.47852,1.1523437 -1.301,0.7680003 -2.32526,1.8239683 -3.07226,3.1679683 -0.746,1.3227 -1.1211,2.848172 -1.1211,4.576172 0,1.728 0.38435,3.263422 1.15235,4.607422 0.768,1.3227 1.86787,2.368719 3.29687,3.136719 1.43,0.768 3.13514,1.152343 5.11914,1.152343 1.152,0 2.27138,-0.170418 3.35938,-0.511718 1.11,-0.3413 2.26303,-0.971372 3.45703,-1.888672 l -2.97656,-4.191406 c -0.512,0.3627 -1.00266,0.628128 -1.47266,0.798828 -0.448,0.1493 -0.99086,0.224609 -1.63086,0.224609 -1.002,0 -1.84434,-0.170419 -2.52734,-0.511719 -0.661,-0.3627 -1.14241,-0.853956 -1.44141,-1.472656 h 10.65625 l 0.0312,-1.34375 c 0.043,-1.728 -0.28623,-3.253472 -0.99023,-4.576172 -0.682,-1.344 -1.66532,-2.399968 -2.94532,-3.1679683 -1.258,-0.768 -2.73001,-1.1523437 -4.41601,-1.1523437 z m 19.71094,0 c -1.685,0 -3.17847,0.3843437 -4.48047,1.1523437 -1.301,0.7680003 -2.32527,1.8239683 -3.07227,3.1679683 -0.746,1.3227 -1.11914,2.848172 -1.11914,4.576172 0,1.728 0.38435,3.263422 1.15235,4.607422 0.76799,1.3227 1.86592,2.368719 3.29492,3.136719 1.43,0.768 3.13709,1.152343 5.12109,1.152343 1.152,0 2.27138,-0.170418 3.35938,-0.511718 1.11,-0.3413 2.26107,-0.971372 3.45507,-1.888672 l -2.97461,-4.191406 c -0.512,0.3627 -1.00265,0.628128 -1.47265,0.798828 -0.448,0.1493 -0.99281,0.224609 -1.63281,0.224609 -1.002,0 -1.84435,-0.170419 -2.52735,-0.511719 -0.661,-0.3627 -1.14045,-0.853956 -1.43945,-1.472656 h 10.65625 l 0.0312,-1.34375 c 0.043,-1.728 -0.28819,-3.253472 -0.99219,-4.576172 -0.682,-1.344 -1.66336,-2.399968 -2.94336,-3.1679683 -1.258,-0.768 -2.73001,-1.1523437 -4.41601,-1.1523437 z M 43.695315,9.0566406 V 19.615234 c 10e-7,2.2187 0.52296,3.926394 1.56836,5.121094 1.0453,1.1947 2.539069,1.791015 4.480469,1.791015 1.0026,1e-6 1.929803,-0.202121 2.783203,-0.607421 0.8746,-0.4053 1.599781,-0.950113 2.175781,-1.632813 l 0.224609,1.888672 h 5.951172 V 9.0566406 H 54.382815 V 19.232422 c 10e-7,0.576 -0.202121,1.055453 -0.607421,1.439453 -0.4054,0.384 -0.92836,0.576172 -1.56836,0.576172 -1.344,0 -2.015625,-0.725082 -2.015625,-2.175782 V 9.0566406 Z m 170.921875,0 V 19.615234 c 0,2.2187 0.52236,3.926394 1.56836,5.121094 1.045,1.1947 2.53847,1.791015 4.48047,1.791015 1.002,1e-6 1.9292,-0.202121 2.7832,-0.607421 0.874,-0.4053 1.59978,-0.950113 2.17578,-1.632813 l 0.22461,1.888672 h 5.95117 V 9.0566406 h -6.49609 V 19.232422 c 0,0.576 -0.20242,1.055453 -0.60742,1.439453 -0.406,0.384 -0.92836,0.576172 -1.56836,0.576172 -1.344,0 -2.01563,-0.725082 -2.01563,-2.175782 V 9.0566406 Z m -84.02344,4.8632814 c 0.725,0 1.30152,0.180268 1.72852,0.542968 0.448,0.3413 0.68212,0.822707 0.70312,1.441407 H 127.875 c 0.341,-1.3227 1.24675,-1.984375 2.71875,-1.984375 z m 170.92188,0 c 0.726,0 1.30251,0.180268 1.72851,0.542968 0.448,0.3413 0.68213,0.822707 0.70313,1.441407 h -5.15235 c 0.342,-1.3227 1.24871,-1.984375 2.72071,-1.984375 z m 19.70898,0 c 0.726,0 1.30252,0.180268 1.72852,0.542968 0.448,0.3413 0.68407,0.822707 0.70507,1.441407 h -5.15234 c 0.342,-1.3227 1.24675,-1.984375 2.71875,-1.984375 z m -224.472654,0.06445 c 0.9813,0 1.738084,0.309034 2.271485,0.927734 0.533299,0.6187 0.798828,1.492347 0.798828,2.623047 0,1.1307 -0.265529,2.0063 -0.798828,2.625 -0.533401,0.5973 -1.290185,0.896484 -2.271485,0.896484 -0.9814,0 -1.740137,-0.299184 -2.273437,-0.896484 -0.512,-0.6187 -0.767578,-1.4943 -0.767578,-2.625 -1e-6,-1.1307 0.255578,-2.004347 0.767578,-2.623047 0.5333,-0.6187 1.292037,-0.927734 2.273437,-0.927734 z m 170.919914,0 c 0.981,0 1.73849,0.309034 2.27149,0.927734 0.533,0.6187 0.80078,1.492347 0.80078,2.623047 0,1.1307 -0.26778,2.0063 -0.80078,2.625 -0.533,0.5973 -1.29049,0.896484 -2.27149,0.896484 -0.981,0 -1.73848,-0.299184 -2.27148,-0.896484 -0.512,-0.6187 -0.76758,-1.4943 -0.76758,-2.625 0,-1.1307 0.25558,-2.004347 0.76758,-2.623047 0.533,-0.6187 1.29049,-0.927734 2.27148,-0.927734 z m -106.08398,2.591797 c 0.298,0.3413 0.62919,0.691987 0.99219,1.054687 l 3.45703,3.521484 c -0.619,0.256001 -1.27113,0.382813 -1.95313,0.382813 -1.195,0 -2.11195,-0.233825 -2.75195,-0.703125 -0.64,-0.4907 -0.95898,-1.184078 -0.95898,-2.080078 0,-0.8747 0.40384,-1.599781 1.21484,-2.175781 z M 10.527347,16.992184 c 0.576,0.213334 1.055453,0.478828 1.439453,0.798828 0.384,0.32 0.576172,0.714261 0.576172,1.183594 0,0.469333 -0.180302,0.853677 -0.542969,1.152344 -0.341333,0.277333 -0.791037,0.459588 -1.345703,0.544922 z" />
</svg>
