<svg width="104" height="146" viewBox="0 0 104 146" fill="none" xmlns="http://www.w3.org/2000/svg">
<path fill-rule="evenodd" clip-rule="evenodd" d="M104.428 0.481679L75.8491 49.9824C74.6276 52.0982 75.3263 54.7884 77.4825 56.0333L85.0299 60.3908C87.1535 61.6169 89.8461 60.9287 91.0867 58.7799L119.666 9.27912L165.379 35.6714C169.587 38.1008 171.028 43.4812 168.599 47.689L131.193 112.477C112.982 144.02 72.6427 154.823 41.0941 136.609L33.4439 132.192C1.89059 113.974 -8.92393 73.6495 9.29253 42.0977L46.698 -22.6906C49.1274 -26.8983 54.5078 -28.34 58.7156 -25.9106L104.428 0.481679ZM148.731 -146.633L224.919 -102.646C229.127 -100.216 230.569 -94.836 228.14 -90.6282L214.943 -67.7718C212.514 -63.564 207.134 -62.1224 202.926 -64.5517L126.738 -108.539C122.53 -110.968 121.088 -116.349 123.518 -120.556L136.714 -143.413C139.143 -147.621 144.524 -149.062 148.731 -146.633ZM119.666 9.27912L104.428 0.481679L155.727 -91.8019L165.472 -86.1757L175.217 -80.5495L119.666 9.27912Z" fill="#EE4346"/>
</svg>
