<?xml version="1.0" encoding="UTF-8" standalone="no"?>
<svg
   xmlns:dc="http://purl.org/dc/elements/1.1/"
   xmlns:cc="http://creativecommons.org/ns#"
   xmlns:rdf="http://www.w3.org/1999/02/22-rdf-syntax-ns#"
   xmlns:svg="http://www.w3.org/2000/svg"
   xmlns="http://www.w3.org/2000/svg"
   xmlns:sodipodi="http://sodipodi.sourceforge.net/DTD/sodipodi-0.dtd"
   xmlns:inkscape="http://www.inkscape.org/namespaces/inkscape"
   version="1.1"
   id="Layer_1"
   x="0px"
   y="0px"
   viewBox="0 0 30 30"
   enable-background="new 0 0 30 30"
   xml:space="preserve"
   sodipodi:docname="facebook-white.svg"
   inkscape:version="1.0.1 (c497b03c, 2020-09-10)"><metadata
   id="metadata841"><rdf:RDF><cc:Work
       rdf:about=""><dc:format>image/svg+xml</dc:format><dc:type
         rdf:resource="http://purl.org/dc/dcmitype/StillImage" /></cc:Work></rdf:RDF></metadata><defs
   id="defs839" /><sodipodi:namedview
   pagecolor="#ffffff"
   bordercolor="#666666"
   borderopacity="1"
   objecttolerance="10"
   gridtolerance="10"
   guidetolerance="10"
   inkscape:pageopacity="0"
   inkscape:pageshadow="2"
   inkscape:window-width="1440"
   inkscape:window-height="773"
   id="namedview837"
   showgrid="false"
   inkscape:zoom="19.766667"
   inkscape:cx="15"
   inkscape:cy="15"
   inkscape:window-x="0"
   inkscape:window-y="25"
   inkscape:window-maximized="1"
   inkscape:current-layer="Layer_1" />
<path
   id="circle833"
   d="M 14.886719 0 A 15 15 0 0 0 0 15 A 15 15 0 0 0 15 30 A 15 15 0 0 0 30 15 A 15 15 0 0 0 15 0 A 15 15 0 0 0 14.886719 0 z M 17.300781 6.0996094 C 18.400781 6.0996094 19.399219 6.1992188 19.699219 6.1992188 L 19.699219 9.0996094 L 18 9.0996094 C 16.7 9.0996094 16.400391 9.6996094 16.400391 10.599609 L 16.400391 12.599609 L 19.5 12.599609 L 19.099609 15.800781 L 16.400391 15.800781 L 16.400391 23.900391 L 13.199219 23.900391 L 13.199219 15.800781 L 10.5 15.800781 L 10.5 12.599609 L 13.199219 12.599609 L 13.199219 10.300781 C 13.199219 7.6007812 14.900781 6.0996094 17.300781 6.0996094 z "
   style="fill:#ffffff" />

</svg>
