<svg width="66" height="28" viewBox="0 0 66 28" fill="none" xmlns="http://www.w3.org/2000/svg">
<path d="M0.56 24V1.6H16.656V7.488H7.472V10.688H15.472V16.128H7.472V24H0.56ZM16.57 24L25.562 1.6H31.002L39.93 24H33.082L31.866 20.672H24.506L23.29 24H16.57ZM26.874 14.208L26.234 15.968H30.138L29.498 14.208C29.178 13.3547 28.922 12.6613 28.73 12.128C28.538 11.5733 28.3673 11.008 28.218 10.432C28.0473 11.008 27.8553 11.5733 27.642 12.128C27.45 12.6613 27.194 13.3547 26.874 14.208ZM52.9827 24.32C51.2334 24.32 49.6227 24.032 48.1507 23.456C46.6787 22.88 45.3987 22.0693 44.3107 21.024C43.2227 19.9787 42.3801 18.7413 41.7827 17.312C41.2067 15.8827 40.9187 14.3253 40.9187 12.64C40.9187 10.9333 41.2067 9.376 41.7827 7.968C42.3801 6.53867 43.2227 5.30133 44.3107 4.256C45.3987 3.21067 46.6787 2.4 48.1507 1.824C49.6227 1.248 51.2334 0.959999 52.9827 0.959999C54.7534 0.959999 56.3641 1.248 57.8147 1.824C59.2867 2.4 60.5667 3.21067 61.6547 4.256C62.7427 5.30133 63.5747 6.53867 64.1507 7.968C64.7481 9.376 65.0467 10.9333 65.0467 12.64C65.0467 14.2827 64.7587 15.808 64.1827 17.216C63.6281 18.6027 62.8494 19.808 61.8467 20.832L64.1187 23.968L59.3827 27.52L56.7267 23.808C55.5321 24.1493 54.2841 24.32 52.9827 24.32ZM47.9587 12.64C47.9587 14.0693 48.3747 15.2747 49.2067 16.256C50.0601 17.216 51.1374 17.76 52.4387 17.888L50.7427 15.552L55.5747 12.096L57.5907 14.88C57.8681 14.1973 58.0067 13.4507 58.0067 12.64C58.0067 11.616 57.7827 10.7093 57.3347 9.92C56.9081 9.10933 56.3107 8.48 55.5427 8.032C54.7961 7.584 53.9427 7.36 52.9827 7.36C52.0227 7.36 51.1587 7.584 50.3907 8.032C49.6441 8.48 49.0467 9.10933 48.5987 9.92C48.1721 10.7093 47.9587 11.616 47.9587 12.64Z" fill="url(#paint0_linear)"/>
<defs>
<linearGradient id="paint0_linear" x1="0.2425" y1="12" x2="67" y2="12" gradientUnits="userSpaceOnUse">
<stop/>
<stop offset="1" stop-color="#14A623"/>
</linearGradient>
</defs>
</svg>
