<svg width="22" height="22" viewBox="0 0 22 22" fill="none" xmlns="http://www.w3.org/2000/svg">
<path d="M5.19531 21.1931V7.17749H0.835938V21.1931H5.19531ZM2.99219 5.30249C4.39844 5.30249 5.52344 4.13062 5.52344 2.72437C5.52344 1.36499 4.39844 0.23999 2.99219 0.23999C1.63281 0.23999 0.507812 1.36499 0.507812 2.72437C0.507812 4.13062 1.63281 5.30249 2.99219 5.30249ZM21.4609 21.1931H21.5078V13.5056C21.5078 9.75562 20.6641 6.84937 16.2578 6.84937C14.1484 6.84937 12.7422 8.02124 12.1328 9.09937H12.0859V7.17749H7.91406V21.1931H12.2734V14.2556C12.2734 12.4275 12.6016 10.6931 14.8516 10.6931C17.1016 10.6931 17.1484 12.7556 17.1484 14.3962V21.1931H21.4609Z" fill="#0161AB"/>
</svg>
