<?xml version="1.0" encoding="UTF-8" standalone="no"?>
<svg
   xmlns:dc="http://purl.org/dc/elements/1.1/"
   xmlns:cc="http://creativecommons.org/ns#"
   xmlns:rdf="http://www.w3.org/1999/02/22-rdf-syntax-ns#"
   xmlns:svg="http://www.w3.org/2000/svg"
   xmlns="http://www.w3.org/2000/svg"
   xmlns:sodipodi="http://sodipodi.sourceforge.net/DTD/sodipodi-0.dtd"
   xmlns:inkscape="http://www.inkscape.org/namespaces/inkscape"
   width="165"
   height="32"
   viewBox="0 0 165 32"
   fill="none"
   version="1.1"
   id="svg864"
   sodipodi:docname="Roadmap.svg"
   inkscape:version="1.0.1 (c497b03c, 2020-09-10)">
  <metadata
     id="metadata868">
    <rdf:RDF>
      <cc:Work
         rdf:about="">
        <dc:format>image/svg+xml</dc:format>
        <dc:type
           rdf:resource="http://purl.org/dc/dcmitype/StillImage" />
        <dc:title></dc:title>
      </cc:Work>
    </rdf:RDF>
  </metadata>
  <sodipodi:namedview
     pagecolor="#ffffff"
     bordercolor="#666666"
     borderopacity="1"
     objecttolerance="10"
     gridtolerance="10"
     guidetolerance="10"
     inkscape:pageopacity="0"
     inkscape:pageshadow="2"
     inkscape:window-width="1440"
     inkscape:window-height="773"
     id="namedview866"
     showgrid="false"
     inkscape:zoom="1.423533"
     inkscape:cx="197.93808"
     inkscape:cy="-26.277558"
     inkscape:window-x="0"
     inkscape:window-y="25"
     inkscape:window-maximized="1"
     inkscape:current-layer="svg864" />
  <path
     d="M0.56 24V1.6H11.056C12.6133 1.6 14 1.90933 15.216 2.528C16.432 3.14667 17.3813 3.98933 18.064 5.056C18.7467 6.12267 19.088 7.34933 19.088 8.736C19.088 10.3147 18.736 11.7013 18.032 12.896C17.328 14.0693 16.368 14.9653 15.152 15.584L20.016 24H12.304L8.112 16.544H7.024V24H0.56ZM7.024 11.744H9.968C10.7573 11.744 11.3547 11.5307 11.76 11.104C12.1653 10.656 12.368 10.048 12.368 9.28C12.368 8.576 12.1547 8.032 11.728 7.648C11.3227 7.24267 10.6933 7.04 9.84 7.04H7.024V11.744ZM31.552 24.32C29.696 24.32 28.0427 23.936 26.592 23.168C25.1413 22.4 24 21.3547 23.168 20.032C22.336 18.688 21.92 17.152 21.92 15.424C21.92 13.696 22.336 12.1707 23.168 10.848C24 9.504 25.1413 8.448 26.592 7.68C28.0427 6.912 29.696 6.528 31.552 6.528C33.408 6.528 35.0507 6.912 36.48 7.68C37.9307 8.448 39.0613 9.504 39.872 10.848C40.704 12.1707 41.12 13.696 41.12 15.424C41.12 17.152 40.704 18.688 39.872 20.032C39.0613 21.3547 37.9307 22.4 36.48 23.168C35.0507 23.936 33.408 24.32 31.552 24.32ZM31.552 18.88C32.4267 18.88 33.1413 18.56 33.696 17.92C34.272 17.2587 34.56 16.4267 34.56 15.424C34.56 14.4 34.272 13.568 33.696 12.928C33.1413 12.2667 32.4267 11.936 31.552 11.936C30.656 11.936 29.92 12.2667 29.344 12.928C28.768 13.568 28.48 14.4 28.48 15.424C28.48 16.4267 28.768 17.2587 29.344 17.92C29.92 18.56 30.656 18.88 31.552 18.88ZM51.397 24.288C49.9677 24.288 48.6983 23.9147 47.589 23.168C46.4797 22.4 45.605 21.3547 44.965 20.032C44.325 18.688 44.005 17.152 44.005 15.424C44.005 13.6747 44.3143 12.1387 44.933 10.816C45.573 9.472 46.4477 8.42667 47.557 7.68C48.6877 6.912 49.989 6.528 51.461 6.528C52.5063 6.528 53.413 6.72 54.181 7.104C54.949 7.46667 55.6103 7.95733 56.165 8.576V6.88H62.533V24H56.005V22.336C55.4503 22.9333 54.789 23.4133 54.021 23.776C53.253 24.1173 52.3783 24.288 51.397 24.288ZM53.253 19.008C54.1917 19.008 54.9063 18.6987 55.397 18.08C55.909 17.4613 56.165 16.576 56.165 15.424C56.165 14.272 55.909 13.3867 55.397 12.768C54.9063 12.128 54.1917 11.808 53.253 11.808C52.3357 11.808 51.621 12.128 51.109 12.768C50.6183 13.3867 50.373 14.272 50.373 15.424C50.373 16.576 50.6183 17.4613 51.109 18.08C51.621 18.6987 52.3357 19.008 53.253 19.008ZM73.9797 24.352C72.5717 24.352 71.3131 23.9787 70.2037 23.232C69.1157 22.464 68.2517 21.4187 67.6117 20.096C66.9931 18.752 66.6837 17.2053 66.6837 15.456C66.6837 13.728 67.0037 12.192 67.6437 10.848C68.2837 9.504 69.1584 8.448 70.2677 7.68C71.3984 6.912 72.6891 6.528 74.1397 6.528C75.0357 6.528 75.8784 6.688 76.6677 7.008C77.4571 7.30667 78.1291 7.712 78.6837 8.224V0.32H85.2117V24H79.3557L79.1317 22.4C78.5771 22.9973 77.8411 23.4773 76.9237 23.84C76.0277 24.1813 75.0464 24.352 73.9797 24.352ZM75.9317 19.072C76.8704 19.072 77.5851 18.7627 78.0757 18.144C78.5877 17.504 78.8437 16.608 78.8437 15.456C78.8437 14.304 78.5877 13.4187 78.0757 12.8C77.5851 12.16 76.8704 11.84 75.9317 11.84C75.0144 11.84 74.2997 12.16 73.7877 12.8C73.2971 13.4187 73.0517 14.304 73.0517 15.456C73.0517 16.608 73.2971 17.504 73.7877 18.144C74.2997 18.7627 75.0144 19.072 75.9317 19.072ZM90.33 24V6.88H96.346L96.506 8.64C97.3593 7.82933 98.138 7.27467 98.842 6.976C99.5673 6.67733 100.335 6.528 101.146 6.528C102.17 6.528 103.045 6.72 103.77 7.104C104.517 7.488 105.242 8.23467 105.946 9.344C106.799 8.23467 107.706 7.488 108.666 7.104C109.626 6.72 110.661 6.528 111.77 6.528C113.754 6.528 115.279 7.12533 116.346 8.32C117.413 9.51467 117.946 11.2213 117.946 13.44V24H111.45V13.984C111.45 13.28 111.279 12.7467 110.938 12.384C110.597 12 110.127 11.808 109.53 11.808C108.89 11.808 108.367 12 107.962 12.384C107.578 12.768 107.386 13.248 107.386 13.824V24H100.89V13.984C100.89 13.28 100.719 12.7467 100.378 12.384C100.037 12 99.5673 11.808 98.97 11.808C98.33 11.808 97.8073 12 97.402 12.384C97.018 12.768 96.826 13.248 96.826 13.824V24H90.33ZM129.183 24.288C127.754 24.288 126.485 23.9147 125.375 23.168C124.266 22.4 123.391 21.3547 122.751 20.032C122.111 18.688 121.791 17.152 121.791 15.424C121.791 13.6747 122.101 12.1387 122.719 10.816C123.359 9.472 124.234 8.42667 125.343 7.68C126.474 6.912 127.775 6.528 129.247 6.528C130.293 6.528 131.199 6.72 131.967 7.104C132.735 7.46667 133.397 7.95733 133.951 8.576V6.88H140.319V24H133.791V22.336C133.237 22.9333 132.575 23.4133 131.807 23.776C131.039 24.1173 130.165 24.288 129.183 24.288ZM131.039 19.008C131.978 19.008 132.693 18.6987 133.183 18.08C133.695 17.4613 133.951 16.576 133.951 15.424C133.951 14.272 133.695 13.3867 133.183 12.768C132.693 12.128 131.978 11.808 131.039 11.808C130.122 11.808 129.407 12.128 128.895 12.768C128.405 13.3867 128.159 14.272 128.159 15.424C128.159 16.576 128.405 17.4613 128.895 18.08C129.407 18.6987 130.122 19.008 131.039 19.008ZM145.75 31.04V6.88H151.766L151.894 8.384C152.47 7.808 153.195 7.36 154.07 7.04C154.966 6.69867 155.937 6.528 156.982 6.528C158.39 6.528 159.638 6.912 160.726 7.68C161.835 8.42667 162.699 9.472 163.318 10.816C163.958 12.1387 164.278 13.6747 164.278 15.424C164.278 17.152 163.958 18.688 163.318 20.032C162.678 21.3547 161.793 22.4 160.662 23.168C159.553 23.9147 158.273 24.288 156.822 24.288C155.926 24.288 155.083 24.1387 154.294 23.84C153.505 23.5413 152.833 23.136 152.278 22.624V31.04H145.75ZM155.03 19.008C155.947 19.008 156.651 18.6987 157.142 18.08C157.654 17.4613 157.91 16.576 157.91 15.424C157.91 14.272 157.654 13.3867 157.142 12.768C156.651 12.128 155.947 11.808 155.03 11.808C154.091 11.808 153.366 12.128 152.854 12.768C152.363 13.3867 152.118 14.272 152.118 15.424C152.118 16.576 152.363 17.4613 152.854 18.08C153.366 18.6987 154.091 19.008 155.03 19.008Z"
     fill="url(#paint0_linear)"
     id="path855"
     style="fill:#ffffff" />
  <defs
     id="defs862">
    <linearGradient
       id="paint0_linear"
       x1="3.46"
       y1="12"
       x2="166"
       y2="12"
       gradientUnits="userSpaceOnUse">
      <stop
         id="stop857" />
      <stop
         offset="1"
         stop-color="#14A623"
         id="stop859" />
    </linearGradient>
  </defs>
</svg>
