<?xml version="1.0" encoding="UTF-8" standalone="no"?>
<svg
   xmlns:dc="http://purl.org/dc/elements/1.1/"
   xmlns:cc="http://creativecommons.org/ns#"
   xmlns:rdf="http://www.w3.org/1999/02/22-rdf-syntax-ns#"
   xmlns:svg="http://www.w3.org/2000/svg"
   xmlns="http://www.w3.org/2000/svg"
   width="92"
   height="24"
   viewBox="0 0 92 24"
   fill="none"
   version="1.1"
   id="svg1466">
  <metadata
     id="metadata1470">
    <rdf:RDF>
      <cc:Work
         rdf:about="">
        <dc:format>image/svg+xml</dc:format>
        <dc:type
           rdf:resource="http://purl.org/dc/dcmitype/StillImage" />
        <dc:title></dc:title>
      </cc:Work>
    </rdf:RDF>
  </metadata>
  <path
     d="M6.97888 23V6.488H0.0668764V0.599998H20.9949V6.488H13.8909V23H6.97888ZM30.2511 23.32C28.2671 23.32 26.5605 22.936 25.1311 22.168C23.7018 21.4 22.6031 20.3547 21.8351 19.032C21.0671 17.688 20.6831 16.152 20.6831 14.424C20.6831 12.696 21.0565 11.1707 21.8031 9.848C22.5498 8.504 23.5738 7.448 24.8751 6.68C26.1765 5.912 27.6698 5.528 29.3551 5.528C31.0405 5.528 32.5125 5.912 33.7711 6.68C35.0511 7.448 36.0325 8.504 36.7151 9.848C37.4191 11.1707 37.7498 12.696 37.7071 14.424L37.6751 15.768H27.0191C27.3178 16.3867 27.7978 16.8773 28.4591 17.24C29.1418 17.5813 29.9845 17.752 30.9871 17.752C31.6271 17.752 32.1711 17.6773 32.6191 17.528C33.0885 17.3573 33.5791 17.0907 34.0911 16.728L37.0671 20.92C35.8725 21.8373 34.7205 22.4667 33.6111 22.808C32.5231 23.1493 31.4031 23.32 30.2511 23.32ZM29.4831 10.744C28.0111 10.744 27.1045 11.4053 26.7631 12.728H31.9151C31.8938 12.1093 31.6591 11.6293 31.2111 11.288C30.7845 10.9253 30.2085 10.744 29.4831 10.744ZM47.7851 23.288C46.3558 23.288 45.0865 22.9147 43.9771 22.168C42.8678 21.4 41.9931 20.3547 41.3531 19.032C40.7131 17.688 40.3931 16.152 40.3931 14.424C40.3931 12.6747 40.7025 11.1387 41.3211 9.816C41.9611 8.472 42.8358 7.42667 43.9451 6.68C45.0758 5.912 46.3771 5.528 47.8491 5.528C48.8945 5.528 49.8011 5.72 50.5691 6.104C51.3371 6.46667 51.9985 6.95733 52.5531 7.576V5.88H58.9211V23H52.3931V21.336C51.8385 21.9333 51.1771 22.4133 50.4091 22.776C49.6411 23.1173 48.7665 23.288 47.7851 23.288ZM49.6411 18.008C50.5798 18.008 51.2945 17.6987 51.7851 17.08C52.2971 16.4613 52.5531 15.576 52.5531 14.424C52.5531 13.272 52.2971 12.3867 51.7851 11.768C51.2945 11.128 50.5798 10.808 49.6411 10.808C48.7238 10.808 48.0091 11.128 47.4971 11.768C47.0065 12.3867 46.7611 13.272 46.7611 14.424C46.7611 15.576 47.0065 16.4613 47.4971 17.08C48.0091 17.6987 48.7238 18.008 49.6411 18.008ZM64.3519 23V5.88H70.3679L70.5279 7.64C71.3812 6.82933 72.1599 6.27467 72.8639 5.976C73.5892 5.67733 74.3572 5.528 75.1679 5.528C76.1919 5.528 77.0665 5.72 77.7919 6.104C78.5385 6.488 79.2639 7.23467 79.9679 8.344C80.8212 7.23467 81.7279 6.488 82.6879 6.104C83.6479 5.72 84.6825 5.528 85.7919 5.528C87.7759 5.528 89.3012 6.12533 90.3679 7.32C91.4345 8.51467 91.9679 10.2213 91.9679 12.44V23H85.4719V12.984C85.4719 12.28 85.3012 11.7467 84.9599 11.384C84.6185 11 84.1492 10.808 83.5519 10.808C82.9119 10.808 82.3892 11 81.9839 11.384C81.5999 11.768 81.4079 12.248 81.4079 12.824V23H74.9119V12.984C74.9119 12.28 74.7412 11.7467 74.3999 11.384C74.0585 11 73.5892 10.808 72.9919 10.808C72.3519 10.808 71.8292 11 71.4239 11.384C71.0399 11.768 70.8479 12.248 70.8479 12.824V23H64.3519Z"
     fill="url(#paint0_linear)"
     id="path1457"
     style="fill:#ffffff" />
  <defs
     id="defs1464">
    <linearGradient
       id="paint0_linear"
       x1="2.0875"
       y1="11"
       x2="94"
       y2="11"
       gradientUnits="userSpaceOnUse">
      <stop
         id="stop1459" />
      <stop
         offset="1"
         stop-color="#14A623"
         id="stop1461" />
    </linearGradient>
  </defs>
</svg>
